<?xml version="1.0" encoding="UTF-8" standalone="no"?>
<!DOCTYPE svg PUBLIC "-//W3C//DTD SVG 1.1//EN"
 "http://www.w3.org/Graphics/SVG/1.1/DTD/svg11.dtd">
<!-- Generated by graphviz version 2.43.0 (0)
 -->
<!-- Title: AFA Pages: 1 -->
<svg width="1128pt" height="383pt"
 viewBox="0.00 0.00 1128.18 382.75" xmlns="http://www.w3.org/2000/svg" xmlns:xlink="http://www.w3.org/1999/xlink">
<g id="graph0" class="graph" transform="scale(1 1) rotate(0) translate(4 378.75)">
<title>AFA</title>
<polygon fill="white" stroke="transparent" points="-4,4 -4,-378.75 1124.18,-378.75 1124.18,4 -4,4"/>
<!-- 0 -->
<g id="node1" class="node">
<title>0</title>
<ellipse fill="white" stroke="black" cx="92.85" cy="-90.75" rx="18.7" ry="18.7"/>
<text text-anchor="middle" x="92.85" y="-87.05" font-family="Times,serif" font-size="14.00">&amp;</text>
</g>
<!-- 1 -->
<g id="node2" class="node">
<title>1</title>
<ellipse fill="white" stroke="black" cx="182.44" cy="-155.75" rx="18" ry="18"/>
<text text-anchor="middle" x="182.44" y="-152.05" font-family="Times,serif" font-size="14.00">1</text>
</g>
<!-- 0&#45;&gt;1 -->
<g id="edge2" class="edge">
<title>0&#45;&gt;1</title>
<path fill="none" stroke="black" d="M108.71,-101.77C122.55,-112.04 143.36,-127.49 159.18,-139.23"/>
<polygon fill="black" stroke="black" points="157.27,-142.17 167.38,-145.31 161.44,-136.54 157.27,-142.17"/>
<text text-anchor="middle" x="133.7" y="-127.55" font-family="Times,serif" font-size="14.00">ε</text>
</g>
<!-- 14 -->
<g id="node15" class="node">
<title>14</title>
<ellipse fill="white" stroke="black" cx="182.44" cy="-26.75" rx="22.96" ry="22.96"/>
<ellipse fill="none" stroke="black" cx="182.44" cy="-26.75" rx="27" ry="27"/>
<text text-anchor="middle" x="182.44" y="-23.05" font-family="Times,serif" font-size="14.00">14</text>
</g>
<!-- 0&#45;&gt;14 -->
<g id="edge3" class="edge">
<title>0&#45;&gt;14</title>
<path fill="none" stroke="black" d="M108.71,-79.89C120.54,-71.25 137.47,-58.87 152.03,-48.24"/>
<polygon fill="black" stroke="black" points="154.25,-50.95 160.26,-42.22 150.12,-45.3 154.25,-50.95"/>
<text text-anchor="middle" x="133.7" y="-68.55" font-family="Times,serif" font-size="14.00">ε</text>
</g>
<!-- 1&#45;&gt;1 -->
<g id="edge18" class="edge">
<title>1&#45;&gt;1</title>
<path fill="none" stroke="black" d="M174.08,-172.04C172.06,-182.14 174.85,-191.75 182.44,-191.75 187.31,-191.75 190.2,-187.8 191.12,-182.31"/>
<polygon fill="black" stroke="black" points="194.61,-181.93 190.81,-172.04 187.62,-182.14 194.61,-181.93"/>
<text text-anchor="middle" x="182.44" y="-195.55" font-family="Times,serif" font-size="14.00">b</text>
</g>
<!-- 2 -->
<g id="node3" class="node">
<title>2</title>
<ellipse fill="white" stroke="black" cx="272.19" cy="-155.75" rx="18" ry="18"/>
<text text-anchor="middle" x="272.19" y="-152.05" font-family="Times,serif" font-size="14.00">2</text>
</g>
<!-- 1&#45;&gt;2 -->
<g id="edge4" class="edge">
<title>1&#45;&gt;2</title>
<path fill="none" stroke="black" d="M200.78,-155.75C213.12,-155.75 229.94,-155.75 244.05,-155.75"/>
<polygon fill="black" stroke="black" points="244.19,-159.25 254.19,-155.75 244.19,-152.25 244.19,-159.25"/>
<text text-anchor="middle" x="231.69" y="-159.55" font-family="Times,serif" font-size="14.00">a</text>
</g>
<!-- 2&#45;&gt;2 -->
<g id="edge5" class="edge">
<title>2&#45;&gt;2</title>
<path fill="none" stroke="black" d="M265.16,-172.41C263.6,-182.37 265.94,-191.75 272.19,-191.75 276.2,-191.75 278.6,-187.9 279.39,-182.52"/>
<polygon fill="black" stroke="black" points="282.89,-182.35 279.22,-172.41 275.89,-182.47 282.89,-182.35"/>
<text text-anchor="middle" x="272.19" y="-195.55" font-family="Times,serif" font-size="14.00">a</text>
</g>
<!-- 3 -->
<g id="node4" class="node">
<title>3</title>
<ellipse fill="white" stroke="black" cx="354.19" cy="-155.75" rx="18" ry="18"/>
<text text-anchor="middle" x="354.19" y="-152.05" font-family="Times,serif" font-size="14.00">3</text>
</g>
<!-- 2&#45;&gt;3 -->
<g id="edge19" class="edge">
<title>2&#45;&gt;3</title>
<path fill="none" stroke="black" d="M290.55,-155.75C300.9,-155.75 314.25,-155.75 325.97,-155.75"/>
<polygon fill="black" stroke="black" points="326.14,-159.25 336.14,-155.75 326.14,-152.25 326.14,-159.25"/>
<text text-anchor="middle" x="313.19" y="-159.55" font-family="Times,serif" font-size="14.00">b</text>
</g>
<!-- 4 -->
<g id="node5" class="node">
<title>4</title>
<ellipse fill="white" stroke="black" cx="435.19" cy="-155.75" rx="18" ry="18"/>
<text text-anchor="middle" x="435.19" y="-152.05" font-family="Times,serif" font-size="14.00">4</text>
</g>
<!-- 3&#45;&gt;4 -->
<g id="edge6" class="edge">
<title>3&#45;&gt;4</title>
<path fill="none" stroke="black" d="M372.33,-155.75C382.48,-155.75 395.56,-155.75 407.08,-155.75"/>
<polygon fill="black" stroke="black" points="407.08,-159.25 417.08,-155.75 407.08,-152.25 407.08,-159.25"/>
<text text-anchor="middle" x="394.69" y="-159.55" font-family="Times,serif" font-size="14.00">a</text>
</g>
<!-- 5 -->
<g id="node6" class="node">
<title>5</title>
<ellipse fill="white" stroke="black" cx="615.94" cy="-58.75" rx="18" ry="18"/>
<text text-anchor="middle" x="615.94" y="-55.05" font-family="Times,serif" font-size="14.00">5</text>
</g>
<!-- 3&#45;&gt;5 -->
<g id="edge20" class="edge">
<title>3&#45;&gt;5</title>
<path fill="none" stroke="black" d="M368.9,-144.76C389.71,-128.69 431.1,-99.02 471.19,-83.75 509.99,-68.98 558.02,-62.87 587.56,-60.39"/>
<polygon fill="black" stroke="black" points="587.85,-63.88 597.56,-59.63 587.32,-56.9 587.85,-63.88"/>
<text text-anchor="middle" x="476.19" y="-87.55" font-family="Times,serif" font-size="14.00">b</text>
</g>
<!-- 6 -->
<g id="node7" class="node">
<title>6</title>
<ellipse fill="white" stroke="black" cx="709.69" cy="-167.75" rx="18" ry="18"/>
<ellipse fill="none" stroke="black" cx="709.69" cy="-167.75" rx="22" ry="22"/>
<text text-anchor="middle" x="709.69" y="-164.05" font-family="Times,serif" font-size="14.00">6</text>
</g>
<!-- 4&#45;&gt;6 -->
<g id="edge7" class="edge">
<title>4&#45;&gt;6</title>
<path fill="none" stroke="black" d="M453.24,-156.5C498.01,-158.47 619.45,-163.82 677.27,-166.36"/>
<polygon fill="black" stroke="black" points="677.48,-169.88 687.62,-166.82 677.78,-162.88 677.48,-169.88"/>
<text text-anchor="middle" x="566.19" y="-165.55" font-family="Times,serif" font-size="14.00">a</text>
</g>
<!-- 7 -->
<g id="node8" class="node">
<title>7</title>
<ellipse fill="white" stroke="black" cx="521.19" cy="-219.75" rx="18" ry="18"/>
<ellipse fill="none" stroke="black" cx="521.19" cy="-219.75" rx="22" ry="22"/>
<text text-anchor="middle" x="521.19" y="-216.05" font-family="Times,serif" font-size="14.00">7</text>
</g>
<!-- 4&#45;&gt;7 -->
<g id="edge21" class="edge">
<title>4&#45;&gt;7</title>
<path fill="none" stroke="black" d="M450.06,-166.32C462.22,-175.58 480.19,-189.27 494.89,-200.47"/>
<polygon fill="black" stroke="black" points="493.03,-203.45 503.11,-206.73 497.27,-197.88 493.03,-203.45"/>
<text text-anchor="middle" x="476.19" y="-193.55" font-family="Times,serif" font-size="14.00">b</text>
</g>
<!-- 5&#45;&gt;6 -->
<g id="edge8" class="edge">
<title>5&#45;&gt;6</title>
<path fill="none" stroke="black" d="M628.19,-72.11C643.04,-89.76 669.47,-121.15 687.98,-143.14"/>
<polygon fill="black" stroke="black" points="685.52,-145.66 694.64,-151.06 690.88,-141.16 685.52,-145.66"/>
<text text-anchor="middle" x="665.19" y="-124.55" font-family="Times,serif" font-size="14.00">a</text>
</g>
<!-- 8 -->
<g id="node9" class="node">
<title>8</title>
<ellipse fill="white" stroke="black" cx="998.68" cy="-112.75" rx="18" ry="18"/>
<ellipse fill="none" stroke="black" cx="998.68" cy="-112.75" rx="22" ry="22"/>
<text text-anchor="middle" x="998.68" y="-109.05" font-family="Times,serif" font-size="14.00">8</text>
</g>
<!-- 5&#45;&gt;8 -->
<g id="edge22" class="edge">
<title>5&#45;&gt;8</title>
<path fill="none" stroke="black" d="M633.8,-56.1C652.17,-53.44 682.44,-49.75 708.69,-49.75 708.69,-49.75 708.69,-49.75 904.93,-49.75 933.72,-49.75 960.19,-70.77 977.43,-88.53"/>
<polygon fill="black" stroke="black" points="974.86,-90.91 984.22,-95.87 980,-86.15 974.86,-90.91"/>
<text text-anchor="middle" x="804.44" y="-53.55" font-family="Times,serif" font-size="14.00">b</text>
</g>
<!-- 9 -->
<g id="node10" class="node">
<title>9</title>
<ellipse fill="white" stroke="black" cx="1093.43" cy="-242.75" rx="18" ry="18"/>
<ellipse fill="none" stroke="black" cx="1093.43" cy="-242.75" rx="22" ry="22"/>
<text text-anchor="middle" x="1093.43" y="-239.05" font-family="Times,serif" font-size="14.00">9</text>
</g>
<!-- 6&#45;&gt;9 -->
<g id="edge9" class="edge">
<title>6&#45;&gt;9</title>
<path fill="none" stroke="black" d="M724.61,-184.14C741.34,-201.91 771.22,-227.75 803.44,-227.75 803.44,-227.75 803.44,-227.75 999.68,-227.75 1020.68,-227.75 1044.01,-231.54 1062.02,-235.31"/>
<polygon fill="black" stroke="black" points="1061.43,-238.77 1071.95,-237.5 1062.94,-231.93 1061.43,-238.77"/>
<text text-anchor="middle" x="903.93" y="-231.55" font-family="Times,serif" font-size="14.00">a</text>
</g>
<!-- 10 -->
<g id="node11" class="node">
<title>10</title>
<ellipse fill="white" stroke="black" cx="804.44" cy="-172.75" rx="22.96" ry="22.96"/>
<ellipse fill="none" stroke="black" cx="804.44" cy="-172.75" rx="27" ry="27"/>
<text text-anchor="middle" x="804.44" y="-169.05" font-family="Times,serif" font-size="14.00">10</text>
</g>
<!-- 6&#45;&gt;10 -->
<g id="edge23" class="edge">
<title>6&#45;&gt;10</title>
<path fill="none" stroke="black" d="M731.73,-168.88C742.23,-169.45 755.23,-170.15 767.27,-170.8"/>
<polygon fill="black" stroke="black" points="767.33,-174.31 777.51,-171.35 767.71,-167.32 767.33,-174.31"/>
<text text-anchor="middle" x="754.69" y="-174.55" font-family="Times,serif" font-size="14.00">b</text>
</g>
<!-- 11 -->
<g id="node12" class="node">
<title>11</title>
<ellipse fill="white" stroke="black" cx="615.94" cy="-210.75" rx="22.96" ry="22.96"/>
<ellipse fill="none" stroke="black" cx="615.94" cy="-210.75" rx="27" ry="27"/>
<text text-anchor="middle" x="615.94" y="-207.05" font-family="Times,serif" font-size="14.00">11</text>
</g>
<!-- 7&#45;&gt;11 -->
<g id="edge10" class="edge">
<title>7&#45;&gt;11</title>
<path fill="none" stroke="black" d="M543.24,-217.71C553.74,-216.69 566.74,-215.43 578.77,-214.26"/>
<polygon fill="black" stroke="black" points="579.4,-217.71 589.01,-213.26 578.72,-210.75 579.4,-217.71"/>
<text text-anchor="middle" x="566.19" y="-220.55" font-family="Times,serif" font-size="14.00">a</text>
</g>
<!-- 12 -->
<g id="node13" class="node">
<title>12</title>
<ellipse fill="white" stroke="black" cx="903.93" cy="-147.75" rx="22.96" ry="22.96"/>
<ellipse fill="none" stroke="black" cx="903.93" cy="-147.75" rx="27" ry="27"/>
<text text-anchor="middle" x="903.93" y="-144.05" font-family="Times,serif" font-size="14.00">12</text>
</g>
<!-- 7&#45;&gt;12 -->
<g id="edge24" class="edge">
<title>7&#45;&gt;12</title>
<path fill="none" stroke="black" d="M538.42,-233.55C556.05,-247.1 585.64,-265.75 614.94,-265.75 614.94,-265.75 614.94,-265.75 805.44,-265.75 827.82,-265.75 862.96,-214.66 884.38,-179.71"/>
<polygon fill="black" stroke="black" points="887.6,-181.15 889.77,-170.78 881.6,-177.53 887.6,-181.15"/>
<text text-anchor="middle" x="709.69" y="-269.55" font-family="Times,serif" font-size="14.00">b</text>
</g>
<!-- 8&#45;&gt;9 -->
<g id="edge11" class="edge">
<title>8&#45;&gt;9</title>
<path fill="none" stroke="black" d="M1012.19,-130.28C1028.09,-152.57 1055.68,-191.24 1074,-216.91"/>
<polygon fill="black" stroke="black" points="1071.16,-218.97 1079.82,-225.08 1076.86,-214.9 1071.16,-218.97"/>
<text text-anchor="middle" x="1043.68" y="-181.55" font-family="Times,serif" font-size="14.00">a</text>
</g>
<!-- 13 -->
<g id="node14" class="node">
<title>13</title>
<ellipse fill="white" stroke="black" cx="1093.43" cy="-80.75" rx="22.96" ry="22.96"/>
<ellipse fill="none" stroke="black" cx="1093.43" cy="-80.75" rx="27" ry="27"/>
<text text-anchor="middle" x="1093.43" y="-77.05" font-family="Times,serif" font-size="14.00">13</text>
</g>
<!-- 8&#45;&gt;13 -->
<g id="edge25" class="edge">
<title>8&#45;&gt;13</title>
<path fill="none" stroke="black" d="M1019.81,-105.8C1031.01,-101.94 1045.27,-97.02 1058.18,-92.56"/>
<polygon fill="black" stroke="black" points="1059.41,-95.84 1067.72,-89.27 1057.12,-89.23 1059.41,-95.84"/>
<text text-anchor="middle" x="1043.68" y="-102.55" font-family="Times,serif" font-size="14.00">b</text>
</g>
<!-- 9&#45;&gt;2 -->
<g id="edge12" class="edge">
<title>9&#45;&gt;2</title>
<path fill="none" stroke="black" d="M1086.41,-263.67C1075.3,-297.32 1048.15,-359.75 999.68,-359.75 353.19,-359.75 353.19,-359.75 353.19,-359.75 315.76,-359.75 288.6,-239.17 278.04,-183.42"/>
<polygon fill="black" stroke="black" points="281.47,-182.69 276.21,-173.49 274.58,-183.96 281.47,-182.69"/>
<text text-anchor="middle" x="665.19" y="-363.55" font-family="Times,serif" font-size="14.00">a</text>
</g>
<!-- 9&#45;&gt;3 -->
<g id="edge26" class="edge">
<title>9&#45;&gt;3</title>
<path fill="none" stroke="black" d="M1080.74,-261.04C1065.14,-282.95 1035.32,-316.75 999.68,-316.75 434.19,-316.75 434.19,-316.75 434.19,-316.75 375.7,-316.75 360.51,-230.04 356.57,-183.89"/>
<polygon fill="black" stroke="black" points="360.06,-183.62 355.84,-173.9 353.08,-184.13 360.06,-183.62"/>
<text text-anchor="middle" x="709.69" y="-320.55" font-family="Times,serif" font-size="14.00">b</text>
</g>
<!-- 10&#45;&gt;4 -->
<g id="edge13" class="edge">
<title>10&#45;&gt;4</title>
<path fill="none" stroke="black" d="M786.06,-152.77C768.86,-135.31 740.8,-112.75 710.69,-112.75 520.19,-112.75 520.19,-112.75 520.19,-112.75 496.83,-112.75 473.43,-126.09 457.29,-137.91"/>
<polygon fill="black" stroke="black" points="454.88,-135.34 449.11,-144.22 459.16,-140.88 454.88,-135.34"/>
<text text-anchor="middle" x="615.94" y="-116.55" font-family="Times,serif" font-size="14.00">a</text>
</g>
<!-- 10&#45;&gt;12 -->
<g id="edge27" class="edge">
<title>10&#45;&gt;12</title>
<path fill="none" stroke="black" d="M830.54,-166.31C841.92,-163.39 855.55,-159.9 867.91,-156.73"/>
<polygon fill="black" stroke="black" points="869.09,-160.04 877.91,-154.16 867.35,-153.26 869.09,-160.04"/>
<text text-anchor="middle" x="854.18" y="-165.55" font-family="Times,serif" font-size="14.00">b</text>
</g>
<!-- 11&#45;&gt;6 -->
<g id="edge14" class="edge">
<title>11&#45;&gt;6</title>
<path fill="none" stroke="black" d="M640.57,-199.67C652.67,-194 667.49,-187.05 680.22,-181.09"/>
<polygon fill="black" stroke="black" points="681.89,-184.17 689.46,-176.76 678.92,-177.83 681.89,-184.17"/>
<text text-anchor="middle" x="665.19" y="-193.55" font-family="Times,serif" font-size="14.00">a</text>
</g>
<!-- 11&#45;&gt;7 -->
<g id="edge28" class="edge">
<title>11&#45;&gt;7</title>
<path fill="none" stroke="black" d="M591.63,-199.28C582.17,-196.03 571.15,-194.03 561.19,-196.75 556.81,-197.94 552.42,-199.77 548.24,-201.89"/>
<polygon fill="black" stroke="black" points="546.5,-198.85 539.54,-206.84 549.96,-204.94 546.5,-198.85"/>
<text text-anchor="middle" x="566.19" y="-200.55" font-family="Times,serif" font-size="14.00">b</text>
</g>
<!-- 12&#45;&gt;6 -->
<g id="edge15" class="edge">
<title>12&#45;&gt;6</title>
<path fill="none" stroke="black" d="M879.51,-135.91C854.09,-124.66 812.47,-110.96 777.69,-121.75 761.7,-126.71 746.15,-136.95 734.05,-146.51"/>
<polygon fill="black" stroke="black" points="731.74,-143.88 726.27,-152.95 736.21,-149.27 731.74,-143.88"/>
<text text-anchor="middle" x="804.44" y="-125.55" font-family="Times,serif" font-size="14.00">a</text>
</g>
<!-- 12&#45;&gt;8 -->
<g id="edge29" class="edge">
<title>12&#45;&gt;8</title>
<path fill="none" stroke="black" d="M929.3,-138.55C941.24,-134.05 955.72,-128.58 968.27,-123.84"/>
<polygon fill="black" stroke="black" points="969.72,-127.04 977.84,-120.23 967.25,-120.49 969.72,-127.04"/>
<text text-anchor="middle" x="953.68" y="-134.55" font-family="Times,serif" font-size="14.00">b</text>
</g>
<!-- 13&#45;&gt;2 -->
<g id="edge16" class="edge">
<title>13&#45;&gt;2</title>
<path fill="none" stroke="black" d="M1078.4,-58.06C1062.41,-35.35 1034,-3.75 999.68,-3.75 353.19,-3.75 353.19,-3.75 353.19,-3.75 297.82,-3.75 280.69,-83.72 275.45,-127.65"/>
<polygon fill="black" stroke="black" points="271.96,-127.4 274.38,-137.71 278.92,-128.14 271.96,-127.4"/>
<text text-anchor="middle" x="665.19" y="-7.55" font-family="Times,serif" font-size="14.00">a</text>
</g>
<!-- 13&#45;&gt;13 -->
<g id="edge30" class="edge">
<title>13&#45;&gt;13</title>
<path fill="none" stroke="black" d="M1084.51,-106.05C1083.89,-116.57 1086.87,-125.5 1093.43,-125.5 1097.74,-125.5 1100.5,-121.65 1101.71,-116.04"/>
<polygon fill="black" stroke="black" points="1105.2,-116.25 1102.35,-106.05 1098.22,-115.81 1105.2,-116.25"/>
<text text-anchor="middle" x="1093.43" y="-129.3" font-family="Times,serif" font-size="14.00">b</text>
</g>
<!-- 14&#45;&gt;14 -->
<g id="edge17" class="edge">
<title>14&#45;&gt;14</title>
<path fill="none" stroke="black" d="M177.95,-53.39C177.81,-63.32 179.3,-71.5 182.44,-71.5 184.41,-71.5 185.73,-68.3 186.41,-63.48"/>
<polygon fill="black" stroke="black" points="189.91,-63.56 186.93,-53.39 182.92,-63.2 189.91,-63.56"/>
<text text-anchor="middle" x="182.44" y="-75.3" font-family="Times,serif" font-size="14.00">a</text>
</g>
<!-- 14&#45;&gt;14 -->
<g id="edge31" class="edge">
<title>14&#45;&gt;14</title>
<path fill="none" stroke="black" d="M174.41,-52.53C171.8,-71.05 174.48,-89.5 182.44,-89.5 188.92,-89.5 191.9,-77.32 191.39,-62.82"/>
<polygon fill="black" stroke="black" points="194.85,-62.18 190.48,-52.53 187.87,-62.8 194.85,-62.18"/>
<text text-anchor="middle" x="182.44" y="-93.3" font-family="Times,serif" font-size="14.00">b</text>
</g>
<!-- start -->
<!-- start&#45;&gt;0 -->
<g id="edge1" class="edge">
<title>start&#45;&gt;0</title>
<path fill="none" stroke="black" d="M1.07,-90.75C2.78,-90.75 37.8,-90.75 63.83,-90.75"/>
<polygon fill="black" stroke="black" points="63.97,-94.25 73.97,-90.75 63.97,-87.25 63.97,-94.25"/>
<text text-anchor="middle" x="37.5" y="-94.55" font-family="Times,serif" font-size="14.00">Start</text>
</g>
</g>
</svg>
