<?xml version="1.0" encoding="UTF-8" standalone="no"?>
<!DOCTYPE svg PUBLIC "-//W3C//DTD SVG 1.1//EN"
 "http://www.w3.org/Graphics/SVG/1.1/DTD/svg11.dtd">
<!-- Generated by graphviz version 2.43.0 (0)
 -->
<!-- Title: AFA Pages: 1 -->
<svg width="1147pt" height="514pt"
 viewBox="0.00 0.00 1147.17 513.75" xmlns="http://www.w3.org/2000/svg" xmlns:xlink="http://www.w3.org/1999/xlink">
<g id="graph0" class="graph" transform="scale(1 1) rotate(0) translate(4 509.75)">
<title>AFA</title>
<polygon fill="white" stroke="transparent" points="-4,4 -4,-509.75 1143.17,-509.75 1143.17,4 -4,4"/>
<!-- 0 -->
<g id="node1" class="node">
<title>0</title>
<ellipse fill="white" stroke="black" cx="92.85" cy="-150.75" rx="18.7" ry="18.7"/>
<text text-anchor="middle" x="92.85" y="-147.05" font-family="Times,serif" font-size="14.00">&amp;</text>
</g>
<!-- 1 -->
<g id="node2" class="node">
<title>1</title>
<ellipse fill="white" stroke="black" cx="178.44" cy="-197.75" rx="18" ry="18"/>
<text text-anchor="middle" x="178.44" y="-194.05" font-family="Times,serif" font-size="14.00">1</text>
</g>
<!-- 0&#45;&gt;1 -->
<g id="edge2" class="edge">
<title>0&#45;&gt;1</title>
<path fill="none" stroke="black" d="M109.57,-159.59C121.87,-166.5 139.18,-176.23 153.24,-184.14"/>
<polygon fill="black" stroke="black" points="151.92,-187.41 162.35,-189.26 155.35,-181.31 151.92,-187.41"/>
<text text-anchor="middle" x="133.7" y="-178.55" font-family="Times,serif" font-size="14.00">ε</text>
</g>
<!-- 14 -->
<g id="node15" class="node">
<title>14</title>
<ellipse fill="white" stroke="black" cx="178.44" cy="-104.75" rx="23" ry="23"/>
<text text-anchor="middle" x="178.44" y="-101.05" font-family="Times,serif" font-size="14.00">14</text>
</g>
<!-- 0&#45;&gt;14 -->
<g id="edge3" class="edge">
<title>0&#45;&gt;14</title>
<path fill="none" stroke="black" d="M109.97,-141.88C121.04,-135.79 136.04,-127.53 149.08,-120.36"/>
<polygon fill="black" stroke="black" points="151.07,-123.25 158.15,-115.37 147.7,-117.12 151.07,-123.25"/>
<text text-anchor="middle" x="133.7" y="-134.55" font-family="Times,serif" font-size="14.00">ε</text>
</g>
<!-- 1&#45;&gt;1 -->
<g id="edge20" class="edge">
<title>1&#45;&gt;1</title>
<path fill="none" stroke="black" d="M170.78,-214.04C168.93,-224.14 171.48,-233.75 178.44,-233.75 182.9,-233.75 185.56,-229.8 186.4,-224.31"/>
<polygon fill="black" stroke="black" points="189.89,-223.94 186.11,-214.04 182.89,-224.13 189.89,-223.94"/>
<text text-anchor="middle" x="178.44" y="-237.55" font-family="Times,serif" font-size="14.00">b</text>
</g>
<!-- 2 -->
<g id="node3" class="node">
<title>2</title>
<ellipse fill="white" stroke="black" cx="268.94" cy="-217.75" rx="18" ry="18"/>
<text text-anchor="middle" x="268.94" y="-214.05" font-family="Times,serif" font-size="14.00">2</text>
</g>
<!-- 1&#45;&gt;2 -->
<g id="edge4" class="edge">
<title>1&#45;&gt;2</title>
<path fill="none" stroke="black" d="M196.09,-201.51C208.74,-204.37 226.4,-208.36 241.05,-211.67"/>
<polygon fill="black" stroke="black" points="240.54,-215.14 251.07,-213.94 242.09,-208.32 240.54,-215.14"/>
<text text-anchor="middle" x="223.69" y="-212.55" font-family="Times,serif" font-size="14.00">a</text>
</g>
<!-- 2&#45;&gt;2 -->
<g id="edge5" class="edge">
<title>2&#45;&gt;2</title>
<path fill="none" stroke="black" d="M261.27,-234.04C259.42,-244.14 261.98,-253.75 268.94,-253.75 273.4,-253.75 276.05,-249.8 276.9,-244.31"/>
<polygon fill="black" stroke="black" points="280.39,-243.94 276.61,-234.04 273.39,-244.13 280.39,-243.94"/>
<text text-anchor="middle" x="268.94" y="-257.55" font-family="Times,serif" font-size="14.00">a</text>
</g>
<!-- 3 -->
<g id="node4" class="node">
<title>3</title>
<ellipse fill="white" stroke="black" cx="364.44" cy="-226.75" rx="18" ry="18"/>
<text text-anchor="middle" x="364.44" y="-223.05" font-family="Times,serif" font-size="14.00">3</text>
</g>
<!-- 2&#45;&gt;3 -->
<g id="edge21" class="edge">
<title>2&#45;&gt;3</title>
<path fill="none" stroke="black" d="M287.09,-219.4C300.8,-220.72 320.27,-222.59 336.12,-224.12"/>
<polygon fill="black" stroke="black" points="336.11,-227.63 346.4,-225.11 336.78,-220.67 336.11,-227.63"/>
<text text-anchor="middle" x="314.69" y="-226.55" font-family="Times,serif" font-size="14.00">b</text>
</g>
<!-- 4 -->
<g id="node5" class="node">
<title>4</title>
<ellipse fill="white" stroke="black" cx="454.18" cy="-280.75" rx="18" ry="18"/>
<text text-anchor="middle" x="454.18" y="-277.05" font-family="Times,serif" font-size="14.00">4</text>
</g>
<!-- 3&#45;&gt;4 -->
<g id="edge6" class="edge">
<title>3&#45;&gt;4</title>
<path fill="none" stroke="black" d="M380.32,-235.91C393.89,-244.26 414.16,-256.73 429.88,-266.4"/>
<polygon fill="black" stroke="black" points="428.17,-269.46 438.52,-271.72 431.84,-263.5 428.17,-269.46"/>
<text text-anchor="middle" x="413.68" y="-262.55" font-family="Times,serif" font-size="14.00">a</text>
</g>
<!-- 5 -->
<g id="node6" class="node">
<title>5</title>
<ellipse fill="white" stroke="black" cx="634.93" cy="-202.75" rx="18" ry="18"/>
<text text-anchor="middle" x="634.93" y="-199.05" font-family="Times,serif" font-size="14.00">5</text>
</g>
<!-- 3&#45;&gt;5 -->
<g id="edge22" class="edge">
<title>3&#45;&gt;5</title>
<path fill="none" stroke="black" d="M382.64,-225.21C428.11,-221.15 551.72,-210.1 606.81,-205.17"/>
<polygon fill="black" stroke="black" points="607.22,-208.65 616.87,-204.27 606.6,-201.68 607.22,-208.65"/>
<text text-anchor="middle" x="495.18" y="-219.55" font-family="Times,serif" font-size="14.00">b</text>
</g>
<!-- 6 -->
<g id="node7" class="node">
<title>6</title>
<ellipse fill="white" stroke="black" cx="728.68" cy="-354.75" rx="18" ry="18"/>
<ellipse fill="none" stroke="black" cx="728.68" cy="-354.75" rx="22" ry="22"/>
<text text-anchor="middle" x="728.68" y="-351.05" font-family="Times,serif" font-size="14.00">6</text>
</g>
<!-- 4&#45;&gt;6 -->
<g id="edge7" class="edge">
<title>4&#45;&gt;6</title>
<path fill="none" stroke="black" d="M466.74,-294.18C473.52,-301.99 482.27,-311.99 490.18,-320.75 502.41,-334.28 503.33,-340.16 518.18,-350.75 553.83,-376.15 565.37,-381.66 608.18,-390.75 631.44,-395.68 638.64,-396.62 661.68,-390.75 675.75,-387.16 690.06,-379.89 701.74,-372.82"/>
<polygon fill="black" stroke="black" points="703.92,-375.58 710.49,-367.26 700.17,-369.67 703.92,-375.58"/>
<text text-anchor="middle" x="585.18" y="-389.55" font-family="Times,serif" font-size="14.00">a</text>
</g>
<!-- 7 -->
<g id="node8" class="node">
<title>7</title>
<ellipse fill="white" stroke="black" cx="540.18" cy="-319.75" rx="18" ry="18"/>
<ellipse fill="none" stroke="black" cx="540.18" cy="-319.75" rx="22" ry="22"/>
<text text-anchor="middle" x="540.18" y="-316.05" font-family="Times,serif" font-size="14.00">7</text>
</g>
<!-- 4&#45;&gt;7 -->
<g id="edge23" class="edge">
<title>4&#45;&gt;7</title>
<path fill="none" stroke="black" d="M470.98,-288.08C482.15,-293.27 497.43,-300.36 510.7,-306.52"/>
<polygon fill="black" stroke="black" points="509.37,-309.77 519.92,-310.8 512.32,-303.42 509.37,-309.77"/>
<text text-anchor="middle" x="495.18" y="-305.55" font-family="Times,serif" font-size="14.00">b</text>
</g>
<!-- 5&#45;&gt;6 -->
<g id="edge8" class="edge">
<title>5&#45;&gt;6</title>
<path fill="none" stroke="black" d="M647.54,-216.03C652.18,-221.63 657.43,-228.33 661.68,-234.75 685.06,-270.07 686.01,-281.78 706.68,-318.75 708.22,-321.5 709.84,-324.36 711.48,-327.21"/>
<polygon fill="black" stroke="black" points="708.61,-329.24 716.65,-336.14 714.67,-325.73 708.61,-329.24"/>
<text text-anchor="middle" x="684.18" y="-287.55" font-family="Times,serif" font-size="14.00">a</text>
</g>
<!-- 8 -->
<g id="node9" class="node">
<title>8</title>
<ellipse fill="white" stroke="black" cx="1017.67" cy="-222.75" rx="18" ry="18"/>
<ellipse fill="none" stroke="black" cx="1017.67" cy="-222.75" rx="22" ry="22"/>
<text text-anchor="middle" x="1017.67" y="-219.05" font-family="Times,serif" font-size="14.00">8</text>
</g>
<!-- 5&#45;&gt;8 -->
<g id="edge24" class="edge">
<title>5&#45;&gt;8</title>
<path fill="none" stroke="black" d="M652.79,-200.1C671.16,-197.44 701.43,-193.75 727.68,-193.75 727.68,-193.75 727.68,-193.75 923.92,-193.75 946.27,-193.75 970.33,-201.51 988.34,-209.01"/>
<polygon fill="black" stroke="black" points="987.11,-212.29 997.67,-213.09 989.91,-205.88 987.11,-212.29"/>
<text text-anchor="middle" x="823.43" y="-197.55" font-family="Times,serif" font-size="14.00">b</text>
</g>
<!-- 9 -->
<g id="node10" class="node">
<title>9</title>
<ellipse fill="white" stroke="black" cx="1112.42" cy="-423.75" rx="18" ry="18"/>
<ellipse fill="none" stroke="black" cx="1112.42" cy="-423.75" rx="22" ry="22"/>
<text text-anchor="middle" x="1112.42" y="-420.05" font-family="Times,serif" font-size="14.00">9</text>
</g>
<!-- 6&#45;&gt;9 -->
<g id="edge9" class="edge">
<title>6&#45;&gt;9</title>
<path fill="none" stroke="black" d="M745.91,-368.55C763.54,-382.1 793.13,-400.75 822.43,-400.75 822.43,-400.75 822.43,-400.75 1018.67,-400.75 1040.27,-400.75 1063.88,-406.7 1081.88,-412.54"/>
<polygon fill="black" stroke="black" points="1080.91,-415.91 1091.51,-415.83 1083.18,-409.29 1080.91,-415.91"/>
<text text-anchor="middle" x="922.92" y="-404.55" font-family="Times,serif" font-size="14.00">a</text>
</g>
<!-- 10 -->
<g id="node11" class="node">
<title>10</title>
<ellipse fill="white" stroke="black" cx="823.43" cy="-291.75" rx="22.96" ry="22.96"/>
<ellipse fill="none" stroke="black" cx="823.43" cy="-291.75" rx="27" ry="27"/>
<text text-anchor="middle" x="823.43" y="-288.05" font-family="Times,serif" font-size="14.00">10</text>
</g>
<!-- 6&#45;&gt;10 -->
<g id="edge25" class="edge">
<title>6&#45;&gt;10</title>
<path fill="none" stroke="black" d="M746.56,-341.76C753.35,-336.65 761.31,-330.81 768.68,-325.75 776.01,-320.72 784.04,-315.49 791.61,-310.68"/>
<polygon fill="black" stroke="black" points="793.61,-313.56 800.22,-305.27 789.89,-307.63 793.61,-313.56"/>
<text text-anchor="middle" x="773.68" y="-329.55" font-family="Times,serif" font-size="14.00">b</text>
</g>
<!-- 11 -->
<g id="node12" class="node">
<title>11</title>
<ellipse fill="white" stroke="black" cx="634.93" cy="-354.75" rx="22.96" ry="22.96"/>
<ellipse fill="none" stroke="black" cx="634.93" cy="-354.75" rx="27" ry="27"/>
<text text-anchor="middle" x="634.93" y="-351.05" font-family="Times,serif" font-size="14.00">11</text>
</g>
<!-- 7&#45;&gt;11 -->
<g id="edge10" class="edge">
<title>7&#45;&gt;11</title>
<path fill="none" stroke="black" d="M556.72,-334.27C563.44,-339.72 571.71,-345.41 580.18,-348.75 585.78,-350.95 591.94,-352.43 598.04,-353.41"/>
<polygon fill="black" stroke="black" points="597.77,-356.9 608.11,-354.61 598.6,-349.95 597.77,-356.9"/>
<text text-anchor="middle" x="585.18" y="-355.55" font-family="Times,serif" font-size="14.00">a</text>
</g>
<!-- 12 -->
<g id="node13" class="node">
<title>12</title>
<ellipse fill="white" stroke="black" cx="922.92" cy="-270.75" rx="22.96" ry="22.96"/>
<ellipse fill="none" stroke="black" cx="922.92" cy="-270.75" rx="27" ry="27"/>
<text text-anchor="middle" x="922.92" y="-267.05" font-family="Times,serif" font-size="14.00">12</text>
</g>
<!-- 7&#45;&gt;12 -->
<g id="edge26" class="edge">
<title>7&#45;&gt;12</title>
<path fill="none" stroke="black" d="M561.77,-315.3C590.35,-309.07 643.6,-297.2 688.68,-285.75 736.96,-273.48 747.32,-262.48 796.68,-255.75 820.24,-252.54 826.53,-253.3 850.18,-255.75 862.32,-257 875.43,-259.42 887.08,-261.96"/>
<polygon fill="black" stroke="black" points="886.36,-265.38 896.89,-264.19 887.91,-258.56 886.36,-265.38"/>
<text text-anchor="middle" x="728.68" y="-284.55" font-family="Times,serif" font-size="14.00">b</text>
</g>
<!-- 8&#45;&gt;9 -->
<g id="edge11" class="edge">
<title>8&#45;&gt;9</title>
<path fill="none" stroke="black" d="M1027.73,-242.39C1044.15,-277.96 1078.88,-353.22 1098.03,-394.73"/>
<polygon fill="black" stroke="black" points="1094.95,-396.42 1102.32,-404.03 1101.31,-393.48 1094.95,-396.42"/>
<text text-anchor="middle" x="1062.67" y="-326.55" font-family="Times,serif" font-size="14.00">a</text>
</g>
<!-- 13 -->
<g id="node14" class="node">
<title>13</title>
<ellipse fill="white" stroke="black" cx="1112.42" cy="-165.75" rx="22.96" ry="22.96"/>
<ellipse fill="none" stroke="black" cx="1112.42" cy="-165.75" rx="27" ry="27"/>
<text text-anchor="middle" x="1112.42" y="-162.05" font-family="Times,serif" font-size="14.00">13</text>
</g>
<!-- 8&#45;&gt;13 -->
<g id="edge27" class="edge">
<title>8&#45;&gt;13</title>
<path fill="none" stroke="black" d="M1037,-211.49C1049.41,-203.86 1066.13,-193.58 1080.57,-184.71"/>
<polygon fill="black" stroke="black" points="1082.52,-187.62 1089.21,-179.4 1078.86,-181.65 1082.52,-187.62"/>
<text text-anchor="middle" x="1062.67" y="-201.55" font-family="Times,serif" font-size="14.00">b</text>
</g>
<!-- 9&#45;&gt;2 -->
<g id="edge12" class="edge">
<title>9&#45;&gt;2</title>
<path fill="none" stroke="black" d="M1098.77,-441C1082.61,-460.85 1052.64,-490.75 1018.67,-490.75 363.44,-490.75 363.44,-490.75 363.44,-490.75 312.08,-490.75 283.01,-315.63 273.48,-245.9"/>
<polygon fill="black" stroke="black" points="276.9,-245.11 272.11,-235.66 269.96,-246.03 276.9,-245.11"/>
<text text-anchor="middle" x="684.18" y="-494.55" font-family="Times,serif" font-size="14.00">a</text>
</g>
<!-- 9&#45;&gt;3 -->
<g id="edge28" class="edge">
<title>9&#45;&gt;3</title>
<path fill="none" stroke="black" d="M1091.9,-431.87C1073.38,-438.84 1044.62,-447.75 1018.67,-447.75 453.18,-447.75 453.18,-447.75 453.18,-447.75 412.09,-447.75 381.84,-314.06 370.42,-254.64"/>
<polygon fill="black" stroke="black" points="373.8,-253.64 368.51,-244.46 366.92,-254.93 373.8,-253.64"/>
<text text-anchor="middle" x="728.68" y="-451.55" font-family="Times,serif" font-size="14.00">b</text>
</g>
<!-- 10&#45;&gt;4 -->
<g id="edge13" class="edge">
<title>10&#45;&gt;4</title>
<path fill="none" stroke="black" d="M796.98,-286.05C783.31,-283.17 766.15,-279.86 750.68,-277.75 687.85,-269.18 671.56,-268.68 608.18,-270.75 564.11,-272.19 513.01,-275.95 482.43,-278.43"/>
<polygon fill="black" stroke="black" points="481.83,-274.97 472.15,-279.28 482.4,-281.94 481.83,-274.97"/>
<text text-anchor="middle" x="634.93" y="-274.55" font-family="Times,serif" font-size="14.00">a</text>
</g>
<!-- 10&#45;&gt;12 -->
<g id="edge29" class="edge">
<title>10&#45;&gt;12</title>
<path fill="none" stroke="black" d="M849.79,-286.29C861.07,-283.85 874.55,-280.95 886.78,-278.32"/>
<polygon fill="black" stroke="black" points="887.65,-281.71 896.69,-276.18 886.18,-274.87 887.65,-281.71"/>
<text text-anchor="middle" x="873.18" y="-286.55" font-family="Times,serif" font-size="14.00">b</text>
</g>
<!-- 11&#45;&gt;6 -->
<g id="edge14" class="edge">
<title>11&#45;&gt;6</title>
<path fill="none" stroke="black" d="M661.98,-354.75C672.66,-354.75 685.11,-354.75 696.29,-354.75"/>
<polygon fill="black" stroke="black" points="696.51,-358.25 706.51,-354.75 696.51,-351.25 696.51,-358.25"/>
<text text-anchor="middle" x="684.18" y="-358.55" font-family="Times,serif" font-size="14.00">a</text>
</g>
<!-- 11&#45;&gt;7 -->
<g id="edge30" class="edge">
<title>11&#45;&gt;7</title>
<path fill="none" stroke="black" d="M611.9,-340.35C605.15,-336.44 597.55,-332.52 590.18,-329.75 584.46,-327.59 578.17,-325.86 572.07,-324.49"/>
<polygon fill="black" stroke="black" points="572.59,-321.03 562.1,-322.51 571.22,-327.89 572.59,-321.03"/>
<text text-anchor="middle" x="585.18" y="-333.55" font-family="Times,serif" font-size="14.00">b</text>
</g>
<!-- 12&#45;&gt;6 -->
<g id="edge15" class="edge">
<title>12&#45;&gt;6</title>
<path fill="none" stroke="black" d="M903.46,-289.34C889.84,-302 870.27,-318.14 850.18,-327.75 821.57,-341.42 785.81,-348.31 760.7,-351.68"/>
<polygon fill="black" stroke="black" points="760.14,-348.23 750.65,-352.93 761,-355.17 760.14,-348.23"/>
<text text-anchor="middle" x="823.43" y="-348.55" font-family="Times,serif" font-size="14.00">a</text>
</g>
<!-- 12&#45;&gt;8 -->
<g id="edge31" class="edge">
<title>12&#45;&gt;8</title>
<path fill="none" stroke="black" d="M947.33,-258.64C959.85,-252.15 975.36,-244.13 988.54,-237.31"/>
<polygon fill="black" stroke="black" points="990.37,-240.3 997.64,-232.6 987.15,-234.08 990.37,-240.3"/>
<text text-anchor="middle" x="972.67" y="-250.55" font-family="Times,serif" font-size="14.00">b</text>
</g>
<!-- 13&#45;&gt;2 -->
<g id="edge16" class="edge">
<title>13&#45;&gt;2</title>
<path fill="none" stroke="black" d="M1086.48,-158.22C1067.95,-153.29 1041.96,-147.75 1018.67,-147.75 363.44,-147.75 363.44,-147.75 363.44,-147.75 331.18,-147.75 302.91,-174.78 286.13,-195.25"/>
<polygon fill="black" stroke="black" points="283.27,-193.21 279.86,-203.24 288.78,-197.53 283.27,-193.21"/>
<text text-anchor="middle" x="684.18" y="-151.55" font-family="Times,serif" font-size="14.00">a</text>
</g>
<!-- 13&#45;&gt;13 -->
<g id="edge32" class="edge">
<title>13&#45;&gt;13</title>
<path fill="none" stroke="black" d="M1103.5,-191.05C1102.88,-201.57 1105.86,-210.5 1112.42,-210.5 1116.73,-210.5 1119.49,-206.65 1120.7,-201.04"/>
<polygon fill="black" stroke="black" points="1124.2,-201.25 1121.34,-191.05 1117.21,-200.81 1124.2,-201.25"/>
<text text-anchor="middle" x="1112.42" y="-214.3" font-family="Times,serif" font-size="14.00">b</text>
</g>
<!-- 14&#45;&gt;14 -->
<g id="edge33" class="edge">
<title>14&#45;&gt;14</title>
<path fill="none" stroke="black" d="M170.4,-126.13C169.4,-136.42 172.09,-145.5 178.44,-145.5 182.52,-145.5 185.08,-141.77 186.14,-136.39"/>
<polygon fill="black" stroke="black" points="189.65,-136.25 186.49,-126.13 182.65,-136 189.65,-136.25"/>
<text text-anchor="middle" x="178.44" y="-149.3" font-family="Times,serif" font-size="14.00">b</text>
</g>
<!-- 15 -->
<g id="node16" class="node">
<title>15</title>
<ellipse fill="white" stroke="black" cx="268.94" cy="-41.75" rx="23" ry="23"/>
<text text-anchor="middle" x="268.94" y="-38.05" font-family="Times,serif" font-size="14.00">15</text>
</g>
<!-- 14&#45;&gt;15 -->
<g id="edge17" class="edge">
<title>14&#45;&gt;15</title>
<path fill="none" stroke="black" d="M197.35,-92C210.07,-82.95 227.34,-70.65 241.62,-60.48"/>
<polygon fill="black" stroke="black" points="243.94,-63.13 250.06,-54.48 239.88,-57.43 243.94,-63.13"/>
<text text-anchor="middle" x="223.69" y="-79.55" font-family="Times,serif" font-size="14.00">a</text>
</g>
<!-- 15&#45;&gt;15 -->
<g id="edge18" class="edge">
<title>15&#45;&gt;15</title>
<path fill="none" stroke="black" d="M260.89,-63.13C259.9,-73.42 262.58,-82.5 268.94,-82.5 273.01,-82.5 275.58,-78.77 276.64,-73.39"/>
<polygon fill="black" stroke="black" points="280.14,-73.25 276.99,-63.13 273.15,-73 280.14,-73.25"/>
<text text-anchor="middle" x="268.94" y="-86.3" font-family="Times,serif" font-size="14.00">a</text>
</g>
<!-- 16 -->
<g id="node17" class="node">
<title>16</title>
<ellipse fill="white" stroke="black" cx="364.44" cy="-26.75" rx="22.96" ry="22.96"/>
<ellipse fill="none" stroke="black" cx="364.44" cy="-26.75" rx="27" ry="27"/>
<text text-anchor="middle" x="364.44" y="-23.05" font-family="Times,serif" font-size="14.00">16</text>
</g>
<!-- 15&#45;&gt;16 -->
<g id="edge34" class="edge">
<title>15&#45;&gt;16</title>
<path fill="none" stroke="black" d="M291.63,-38.27C302.41,-36.54 315.73,-34.4 327.96,-32.44"/>
<polygon fill="black" stroke="black" points="328.57,-35.89 337.89,-30.85 327.46,-28.98 328.57,-35.89"/>
<text text-anchor="middle" x="314.69" y="-39.55" font-family="Times,serif" font-size="14.00">b</text>
</g>
<!-- 16&#45;&gt;16 -->
<g id="edge19" class="edge">
<title>16&#45;&gt;16</title>
<path fill="none" stroke="black" d="M359.95,-53.39C359.8,-63.32 361.3,-71.5 364.44,-71.5 366.4,-71.5 367.72,-68.3 368.4,-63.48"/>
<polygon fill="black" stroke="black" points="371.9,-63.56 368.93,-53.39 364.91,-63.2 371.9,-63.56"/>
<text text-anchor="middle" x="364.44" y="-75.3" font-family="Times,serif" font-size="14.00">a</text>
</g>
<!-- 16&#45;&gt;16 -->
<g id="edge35" class="edge">
<title>16&#45;&gt;16</title>
<path fill="none" stroke="black" d="M356.41,-52.53C353.79,-71.05 356.47,-89.5 364.44,-89.5 370.91,-89.5 373.89,-77.32 373.38,-62.82"/>
<polygon fill="black" stroke="black" points="376.84,-62.18 372.47,-52.53 369.86,-62.8 376.84,-62.18"/>
<text text-anchor="middle" x="364.44" y="-93.3" font-family="Times,serif" font-size="14.00">b</text>
</g>
<!-- start -->
<!-- start&#45;&gt;0 -->
<g id="edge1" class="edge">
<title>start&#45;&gt;0</title>
<path fill="none" stroke="black" d="M1.07,-150.75C2.78,-150.75 37.8,-150.75 63.83,-150.75"/>
<polygon fill="black" stroke="black" points="63.97,-154.25 73.97,-150.75 63.97,-147.25 63.97,-154.25"/>
<text text-anchor="middle" x="37.5" y="-154.55" font-family="Times,serif" font-size="14.00">Start</text>
</g>
</g>
</svg>
