<?xml version="1.0" encoding="UTF-8" standalone="no"?>
<!DOCTYPE svg PUBLIC "-//W3C//DTD SVG 1.1//EN"
 "http://www.w3.org/Graphics/SVG/1.1/DTD/svg11.dtd">
<!-- Generated by graphviz version 2.43.0 (0)
 -->
<!-- Title: AFA Pages: 1 -->
<svg width="1169pt" height="513pt"
 viewBox="0.00 0.00 1168.96 513.10" xmlns="http://www.w3.org/2000/svg" xmlns:xlink="http://www.w3.org/1999/xlink">
<g id="graph0" class="graph" transform="scale(1 1) rotate(0) translate(4 509.1)">
<title>AFA</title>
<polygon fill="white" stroke="transparent" points="-4,4 -4,-509.1 1164.96,-509.1 1164.96,4 -4,4"/>
<!-- 0 -->
<g id="node1" class="node">
<title>0</title>
<polygon fill="white" stroke="black" points="128,-252.1 74,-252.1 74,-216.1 128,-216.1 128,-252.1"/>
<text text-anchor="middle" x="101" y="-230.4" font-family="Times,serif" font-size="14.00">&amp;</text>
</g>
<!-- 1 -->
<g id="node2" class="node">
<title>1</title>
<ellipse fill="white" stroke="black" cx="194.1" cy="-286.1" rx="18" ry="18"/>
<text text-anchor="middle" x="194.1" y="-282.4" font-family="Times,serif" font-size="14.00">1</text>
</g>
<!-- 0&#45;&gt;1 -->
<g id="edge2" class="edge">
<title>0&#45;&gt;1</title>
<path fill="none" stroke="black" d="M128.35,-249.14C141.25,-256.5 156.66,-265.3 169.21,-272.46"/>
<polygon fill="black" stroke="black" points="167.74,-275.65 178.16,-277.57 171.21,-269.57 167.74,-275.65"/>
<text text-anchor="middle" x="150" y="-267.9" font-family="Times,serif" font-size="14.00">ε</text>
</g>
<!-- 14 -->
<g id="node15" class="node">
<title>14</title>
<ellipse fill="white" stroke="black" cx="194.1" cy="-189.1" rx="22.2" ry="22.2"/>
<text text-anchor="middle" x="194.1" y="-185.4" font-family="Times,serif" font-size="14.00">a1</text>
</g>
<!-- 0&#45;&gt;14 -->
<g id="edge3" class="edge">
<title>0&#45;&gt;14</title>
<path fill="none" stroke="black" d="M128.35,-221.08C139.76,-215.44 153.14,-208.83 164.77,-203.09"/>
<polygon fill="black" stroke="black" points="166.63,-206.08 174.04,-198.51 163.52,-199.8 166.63,-206.08"/>
<text text-anchor="middle" x="150" y="-215.9" font-family="Times,serif" font-size="14.00">ε</text>
</g>
<!-- 1&#45;&gt;1 -->
<g id="edge22" class="edge">
<title>1&#45;&gt;1</title>
<path fill="none" stroke="black" d="M186.43,-302.39C184.58,-312.49 187.14,-322.1 194.1,-322.1 198.56,-322.1 201.21,-318.15 202.05,-312.66"/>
<polygon fill="black" stroke="black" points="205.54,-312.29 201.77,-302.39 198.55,-312.48 205.54,-312.29"/>
<text text-anchor="middle" x="194.1" y="-325.9" font-family="Times,serif" font-size="14.00">b</text>
</g>
<!-- 2 -->
<g id="node3" class="node">
<title>2</title>
<ellipse fill="white" stroke="black" cx="283.29" cy="-293.1" rx="18" ry="18"/>
<text text-anchor="middle" x="283.29" y="-289.4" font-family="Times,serif" font-size="14.00">2</text>
</g>
<!-- 1&#45;&gt;2 -->
<g id="edge4" class="edge">
<title>1&#45;&gt;2</title>
<path fill="none" stroke="black" d="M212.33,-287.48C224.51,-288.46 241.09,-289.79 255.05,-290.91"/>
<polygon fill="black" stroke="black" points="254.85,-294.41 265.1,-291.72 255.41,-287.43 254.85,-294.41"/>
<text text-anchor="middle" x="238.7" y="-293.9" font-family="Times,serif" font-size="14.00">a</text>
</g>
<!-- 2&#45;&gt;2 -->
<g id="edge5" class="edge">
<title>2&#45;&gt;2</title>
<path fill="none" stroke="black" d="M275.63,-309.39C273.78,-319.49 276.33,-329.1 283.29,-329.1 287.75,-329.1 290.41,-325.15 291.25,-319.66"/>
<polygon fill="black" stroke="black" points="294.74,-319.29 290.96,-309.39 287.74,-319.48 294.74,-319.29"/>
<text text-anchor="middle" x="283.29" y="-332.9" font-family="Times,serif" font-size="14.00">a</text>
</g>
<!-- 3 -->
<g id="node4" class="node">
<title>3</title>
<ellipse fill="white" stroke="black" cx="373.49" cy="-365.1" rx="18" ry="18"/>
<text text-anchor="middle" x="373.49" y="-361.4" font-family="Times,serif" font-size="14.00">3</text>
</g>
<!-- 2&#45;&gt;3 -->
<g id="edge23" class="edge">
<title>2&#45;&gt;3</title>
<path fill="none" stroke="black" d="M297.69,-304.03C311.81,-315.56 334.25,-333.88 350.88,-347.46"/>
<polygon fill="black" stroke="black" points="349.01,-350.45 358.97,-354.06 353.44,-345.02 349.01,-350.45"/>
<text text-anchor="middle" x="328.39" y="-335.9" font-family="Times,serif" font-size="14.00">b</text>
</g>
<!-- 4 -->
<g id="node5" class="node">
<title>4</title>
<ellipse fill="white" stroke="black" cx="463.69" cy="-323.1" rx="18" ry="18"/>
<text text-anchor="middle" x="463.69" y="-319.4" font-family="Times,serif" font-size="14.00">4</text>
</g>
<!-- 3&#45;&gt;4 -->
<g id="edge6" class="edge">
<title>3&#45;&gt;4</title>
<path fill="none" stroke="black" d="M390.26,-357.59C403.43,-351.32 422.44,-342.26 437.68,-335"/>
<polygon fill="black" stroke="black" points="439.53,-338 447.06,-330.54 436.52,-331.68 439.53,-338"/>
<text text-anchor="middle" x="418.59" y="-349.9" font-family="Times,serif" font-size="14.00">a</text>
</g>
<!-- 5 -->
<g id="node6" class="node">
<title>5</title>
<ellipse fill="white" stroke="black" cx="656.73" cy="-401.1" rx="18" ry="18"/>
<text text-anchor="middle" x="656.73" y="-397.4" font-family="Times,serif" font-size="14.00">5</text>
</g>
<!-- 3&#45;&gt;5 -->
<g id="edge24" class="edge">
<title>3&#45;&gt;5</title>
<path fill="none" stroke="black" d="M391.66,-367.3C438.94,-373.35 571.33,-390.29 628.67,-397.63"/>
<polygon fill="black" stroke="black" points="628.42,-401.13 638.78,-398.93 629.31,-394.19 628.42,-401.13"/>
<text text-anchor="middle" x="508.78" y="-386.9" font-family="Times,serif" font-size="14.00">b</text>
</g>
<!-- 6 -->
<g id="node7" class="node">
<title>6</title>
<ellipse fill="white" stroke="black" cx="750.48" cy="-241.1" rx="18" ry="18"/>
<ellipse fill="none" stroke="black" cx="750.48" cy="-241.1" rx="22" ry="22"/>
<text text-anchor="middle" x="750.48" y="-237.4" font-family="Times,serif" font-size="14.00">6</text>
</g>
<!-- 4&#45;&gt;6 -->
<g id="edge7" class="edge">
<title>4&#45;&gt;6</title>
<path fill="none" stroke="black" d="M475.85,-309.68C497.3,-284.99 547.08,-232.88 601.98,-211.1 615.2,-205.85 676.13,-207.41 683.48,-209.1 697.09,-212.22 711.15,-218.55 722.78,-224.75"/>
<polygon fill="black" stroke="black" points="721.09,-227.82 731.53,-229.64 724.51,-221.71 721.09,-227.82"/>
<text text-anchor="middle" x="606.98" y="-214.9" font-family="Times,serif" font-size="14.00">a</text>
</g>
<!-- 7 -->
<g id="node8" class="node">
<title>7</title>
<ellipse fill="white" stroke="black" cx="557.88" cy="-300.1" rx="18" ry="18"/>
<ellipse fill="none" stroke="black" cx="557.88" cy="-300.1" rx="22" ry="22"/>
<text text-anchor="middle" x="557.88" y="-296.4" font-family="Times,serif" font-size="14.00">7</text>
</g>
<!-- 4&#45;&gt;7 -->
<g id="edge25" class="edge">
<title>4&#45;&gt;7</title>
<path fill="none" stroke="black" d="M481.6,-318.88C494.1,-315.76 511.47,-311.43 526.37,-307.71"/>
<polygon fill="black" stroke="black" points="527.35,-311.07 536.21,-305.26 525.66,-304.28 527.35,-311.07"/>
<text text-anchor="middle" x="508.78" y="-316.9" font-family="Times,serif" font-size="14.00">b</text>
</g>
<!-- 5&#45;&gt;6 -->
<g id="edge8" class="edge">
<title>5&#45;&gt;6</title>
<path fill="none" stroke="black" d="M669.38,-387.85C674.04,-382.26 679.28,-375.55 683.48,-369.1 704.61,-336.62 724.34,-296.56 736.62,-270"/>
<polygon fill="black" stroke="black" points="739.83,-271.41 740.8,-260.86 733.46,-268.5 739.83,-271.41"/>
<text text-anchor="middle" x="705.98" y="-342.9" font-family="Times,serif" font-size="14.00">a</text>
</g>
<!-- 8 -->
<g id="node9" class="node">
<title>8</title>
<ellipse fill="white" stroke="black" cx="1039.47" cy="-354.1" rx="18" ry="18"/>
<ellipse fill="none" stroke="black" cx="1039.47" cy="-354.1" rx="22" ry="22"/>
<text text-anchor="middle" x="1039.47" y="-350.4" font-family="Times,serif" font-size="14.00">8</text>
</g>
<!-- 5&#45;&gt;8 -->
<g id="edge26" class="edge">
<title>5&#45;&gt;8</title>
<path fill="none" stroke="black" d="M674.98,-401.1C693.42,-401.1 723.51,-401.1 749.48,-401.1 749.48,-401.1 749.48,-401.1 945.72,-401.1 971.01,-401.1 996.39,-387.03 1014.19,-374.28"/>
<polygon fill="black" stroke="black" points="1016.4,-377 1022.29,-368.2 1012.19,-371.41 1016.4,-377"/>
<text text-anchor="middle" x="845.22" y="-404.9" font-family="Times,serif" font-size="14.00">b</text>
</g>
<!-- 9 -->
<g id="node10" class="node">
<title>9</title>
<ellipse fill="white" stroke="black" cx="1134.22" cy="-374.1" rx="18" ry="18"/>
<ellipse fill="none" stroke="black" cx="1134.22" cy="-374.1" rx="22" ry="22"/>
<text text-anchor="middle" x="1134.22" y="-370.4" font-family="Times,serif" font-size="14.00">9</text>
</g>
<!-- 6&#45;&gt;9 -->
<g id="edge9" class="edge">
<title>6&#45;&gt;9</title>
<path fill="none" stroke="black" d="M771.97,-235.45C777.89,-234.07 784.4,-232.79 790.48,-232.1 811.96,-229.65 802.8,-217 871.97,-233.1 966.8,-255.17 1063.93,-321.44 1108.33,-354.67"/>
<polygon fill="black" stroke="black" points="1106.4,-357.6 1116.49,-360.85 1110.63,-352.02 1106.4,-357.6"/>
<text text-anchor="middle" x="944.72" y="-273.9" font-family="Times,serif" font-size="14.00">a</text>
</g>
<!-- 10 -->
<g id="node11" class="node">
<title>10</title>
<ellipse fill="white" stroke="black" cx="845.22" cy="-300.1" rx="22.96" ry="22.96"/>
<ellipse fill="none" stroke="black" cx="845.22" cy="-300.1" rx="27" ry="27"/>
<text text-anchor="middle" x="845.22" y="-296.4" font-family="Times,serif" font-size="14.00">10</text>
</g>
<!-- 6&#45;&gt;10 -->
<g id="edge27" class="edge">
<title>6&#45;&gt;10</title>
<path fill="none" stroke="black" d="M769.36,-252.47C781.83,-260.4 798.78,-271.19 813.4,-280.49"/>
<polygon fill="black" stroke="black" points="811.83,-283.64 822.14,-286.05 815.58,-277.73 811.83,-283.64"/>
<text text-anchor="middle" x="795.48" y="-274.9" font-family="Times,serif" font-size="14.00">b</text>
</g>
<!-- 11 -->
<g id="node12" class="node">
<title>11</title>
<ellipse fill="white" stroke="black" cx="656.73" cy="-245.1" rx="22.96" ry="22.96"/>
<ellipse fill="none" stroke="black" cx="656.73" cy="-245.1" rx="27" ry="27"/>
<text text-anchor="middle" x="656.73" y="-241.4" font-family="Times,serif" font-size="14.00">11</text>
</g>
<!-- 7&#45;&gt;11 -->
<g id="edge10" class="edge">
<title>7&#45;&gt;11</title>
<path fill="none" stroke="black" d="M565.96,-279.3C572.57,-263.48 584.13,-242.84 601.98,-233.1 608.3,-229.65 615.54,-229.27 622.63,-230.44"/>
<polygon fill="black" stroke="black" points="622.2,-233.95 632.76,-233.11 623.98,-227.18 622.2,-233.95"/>
<text text-anchor="middle" x="606.98" y="-236.9" font-family="Times,serif" font-size="14.00">a</text>
</g>
<!-- 12 -->
<g id="node13" class="node">
<title>12</title>
<ellipse fill="white" stroke="black" cx="944.72" cy="-332.1" rx="22.96" ry="22.96"/>
<ellipse fill="none" stroke="black" cx="944.72" cy="-332.1" rx="27" ry="27"/>
<text text-anchor="middle" x="944.72" y="-328.4" font-family="Times,serif" font-size="14.00">12</text>
</g>
<!-- 7&#45;&gt;12 -->
<g id="edge28" class="edge">
<title>7&#45;&gt;12</title>
<path fill="none" stroke="black" d="M579.97,-303.02C609.26,-307.07 663.89,-314.64 710.48,-321.1 758.48,-327.76 770.13,-332.76 818.48,-336.1 854.61,-338.6 863.79,-337.75 899.97,-336.1 902.51,-335.98 905.12,-335.83 907.75,-335.65"/>
<polygon fill="black" stroke="black" points="908.14,-339.13 917.84,-334.86 907.59,-332.15 908.14,-339.13"/>
<text text-anchor="middle" x="750.48" y="-335.9" font-family="Times,serif" font-size="14.00">b</text>
</g>
<!-- 8&#45;&gt;9 -->
<g id="edge11" class="edge">
<title>8&#45;&gt;9</title>
<path fill="none" stroke="black" d="M1061.05,-358.54C1073.21,-361.16 1088.85,-364.53 1102.45,-367.46"/>
<polygon fill="black" stroke="black" points="1101.86,-370.92 1112.37,-369.6 1103.33,-364.07 1101.86,-370.92"/>
<text text-anchor="middle" x="1084.47" y="-367.9" font-family="Times,serif" font-size="14.00">a</text>
</g>
<!-- 13 -->
<g id="node14" class="node">
<title>13</title>
<ellipse fill="white" stroke="black" cx="1134.22" cy="-164.1" rx="22.96" ry="22.96"/>
<ellipse fill="none" stroke="black" cx="1134.22" cy="-164.1" rx="27" ry="27"/>
<text text-anchor="middle" x="1134.22" y="-160.4" font-family="Times,serif" font-size="14.00">13</text>
</g>
<!-- 8&#45;&gt;13 -->
<g id="edge29" class="edge">
<title>8&#45;&gt;13</title>
<path fill="none" stroke="black" d="M1050.04,-334.48C1065.94,-301.92 1097.94,-236.37 1117.28,-196.74"/>
<polygon fill="black" stroke="black" points="1120.43,-198.26 1121.67,-187.74 1114.14,-195.19 1120.43,-198.26"/>
<text text-anchor="middle" x="1084.47" y="-274.9" font-family="Times,serif" font-size="14.00">b</text>
</g>
<!-- 9&#45;&gt;2 -->
<g id="edge12" class="edge">
<title>9&#45;&gt;2</title>
<path fill="none" stroke="black" d="M1127.05,-395.1C1115.8,-428.53 1088.56,-490.1 1040.47,-490.1 372.49,-490.1 372.49,-490.1 372.49,-490.1 299.42,-490.1 286.49,-375.8 284.48,-321.32"/>
<polygon fill="black" stroke="black" points="287.98,-321.18 284.21,-311.28 280.98,-321.37 287.98,-321.18"/>
<text text-anchor="middle" x="705.98" y="-493.9" font-family="Times,serif" font-size="14.00">a</text>
</g>
<!-- 9&#45;&gt;3 -->
<g id="edge30" class="edge">
<title>9&#45;&gt;3</title>
<path fill="none" stroke="black" d="M1121.47,-392.14C1105.81,-413.76 1075.92,-447.1 1040.47,-447.1 462.69,-447.1 462.69,-447.1 462.69,-447.1 428.57,-447.1 402.12,-413.79 387.42,-389.63"/>
<polygon fill="black" stroke="black" points="390.41,-387.81 382.37,-380.91 384.35,-391.32 390.41,-387.81"/>
<text text-anchor="middle" x="750.48" y="-450.9" font-family="Times,serif" font-size="14.00">b</text>
</g>
<!-- 10&#45;&gt;4 -->
<g id="edge13" class="edge">
<title>10&#45;&gt;4</title>
<path fill="none" stroke="black" d="M820.82,-311.87C794.69,-324.23 750.78,-342.76 710.48,-349.1 631.01,-361.6 536.12,-341.85 491.01,-330.38"/>
<polygon fill="black" stroke="black" points="491.72,-326.94 481.16,-327.8 489.95,-333.72 491.72,-326.94"/>
<text text-anchor="middle" x="656.73" y="-357.9" font-family="Times,serif" font-size="14.00">a</text>
</g>
<!-- 10&#45;&gt;12 -->
<g id="edge31" class="edge">
<title>10&#45;&gt;12</title>
<path fill="none" stroke="black" d="M870.83,-308.17C882.49,-312 896.62,-316.64 909.32,-320.81"/>
<polygon fill="black" stroke="black" points="908.53,-324.23 919.13,-324.03 910.72,-317.58 908.53,-324.23"/>
<text text-anchor="middle" x="894.97" y="-320.9" font-family="Times,serif" font-size="14.00">b</text>
</g>
<!-- 11&#45;&gt;6 -->
<g id="edge14" class="edge">
<title>11&#45;&gt;6</title>
<path fill="none" stroke="black" d="M683.77,-243.96C694.45,-243.5 706.91,-242.95 718.08,-242.47"/>
<polygon fill="black" stroke="black" points="718.47,-245.95 728.31,-242.02 718.17,-238.96 718.47,-245.95"/>
<text text-anchor="middle" x="705.98" y="-246.9" font-family="Times,serif" font-size="14.00">a</text>
</g>
<!-- 11&#45;&gt;7 -->
<g id="edge32" class="edge">
<title>11&#45;&gt;7</title>
<path fill="none" stroke="black" d="M632.07,-255.65C622.57,-260.12 611.6,-265.57 601.98,-271.1 596.23,-274.4 590.23,-278.2 584.6,-281.93"/>
<polygon fill="black" stroke="black" points="582.45,-279.16 576.14,-287.67 586.38,-284.95 582.45,-279.16"/>
<text text-anchor="middle" x="606.98" y="-274.9" font-family="Times,serif" font-size="14.00">b</text>
</g>
<!-- 12&#45;&gt;6 -->
<g id="edge15" class="edge">
<title>12&#45;&gt;6</title>
<path fill="none" stroke="black" d="M930.89,-308.91C918.59,-289.2 898.06,-262.09 871.97,-249.1 844.06,-235.19 807.9,-234.75 782.5,-236.81"/>
<polygon fill="black" stroke="black" points="781.94,-233.35 772.33,-237.82 782.63,-240.32 781.94,-233.35"/>
<text text-anchor="middle" x="845.22" y="-252.9" font-family="Times,serif" font-size="14.00">a</text>
</g>
<!-- 12&#45;&gt;8 -->
<g id="edge33" class="edge">
<title>12&#45;&gt;8</title>
<path fill="none" stroke="black" d="M971.06,-338.11C982.43,-340.81 995.94,-344.01 1007.86,-346.84"/>
<polygon fill="black" stroke="black" points="1007.3,-350.3 1017.84,-349.21 1008.92,-343.49 1007.3,-350.3"/>
<text text-anchor="middle" x="994.47" y="-348.9" font-family="Times,serif" font-size="14.00">b</text>
</g>
<!-- 13&#45;&gt;2 -->
<g id="edge16" class="edge">
<title>13&#45;&gt;2</title>
<path fill="none" stroke="black" d="M1108.25,-156.99C1089.71,-152.33 1063.71,-147.1 1040.47,-147.1 372.49,-147.1 372.49,-147.1 372.49,-147.1 365.48,-147.1 320.63,-226.89 297.72,-268.5"/>
<polygon fill="black" stroke="black" points="294.54,-267.02 292.8,-277.47 300.68,-270.39 294.54,-267.02"/>
<text text-anchor="middle" x="705.98" y="-150.9" font-family="Times,serif" font-size="14.00">a</text>
</g>
<!-- 13&#45;&gt;13 -->
<g id="edge34" class="edge">
<title>13&#45;&gt;13</title>
<path fill="none" stroke="black" d="M1125.3,-189.4C1124.68,-199.92 1127.65,-208.85 1134.22,-208.85 1138.52,-208.85 1141.28,-205 1142.5,-199.39"/>
<polygon fill="black" stroke="black" points="1145.99,-199.6 1143.14,-189.4 1139.01,-199.16 1145.99,-199.6"/>
<text text-anchor="middle" x="1134.22" y="-212.65" font-family="Times,serif" font-size="14.00">b</text>
</g>
<!-- 14&#45;&gt;14 -->
<g id="edge35" class="edge">
<title>14&#45;&gt;14</title>
<path fill="none" stroke="black" d="M186.09,-209.73C184.98,-220.02 187.65,-229.2 194.1,-229.2 198.23,-229.2 200.81,-225.43 201.84,-220.02"/>
<polygon fill="black" stroke="black" points="205.34,-219.82 202.1,-209.73 198.34,-219.63 205.34,-219.82"/>
<text text-anchor="middle" x="194.1" y="-233" font-family="Times,serif" font-size="14.00">b</text>
</g>
<!-- 15 -->
<g id="node16" class="node">
<title>15</title>
<ellipse fill="white" stroke="black" cx="283.29" cy="-189.1" rx="22.2" ry="22.2"/>
<text text-anchor="middle" x="283.29" y="-185.4" font-family="Times,serif" font-size="14.00">a2</text>
</g>
<!-- 14&#45;&gt;15 -->
<g id="edge17" class="edge">
<title>14&#45;&gt;15</title>
<path fill="none" stroke="black" d="M216.21,-189.1C226.62,-189.1 239.4,-189.1 250.94,-189.1"/>
<polygon fill="black" stroke="black" points="251.08,-192.6 261.08,-189.1 251.08,-185.6 251.08,-192.6"/>
<text text-anchor="middle" x="238.7" y="-192.9" font-family="Times,serif" font-size="14.00">a</text>
</g>
<!-- 15&#45;&gt;15 -->
<g id="edge18" class="edge">
<title>15&#45;&gt;15</title>
<path fill="none" stroke="black" d="M275.29,-209.73C274.18,-220.02 276.85,-229.2 283.29,-229.2 287.42,-229.2 290,-225.43 291.03,-220.02"/>
<polygon fill="black" stroke="black" points="294.54,-219.82 291.3,-209.73 287.54,-219.63 294.54,-219.82"/>
<text text-anchor="middle" x="283.29" y="-233" font-family="Times,serif" font-size="14.00">a</text>
</g>
<!-- 16 -->
<g id="node17" class="node">
<title>16</title>
<ellipse fill="white" stroke="black" cx="373.49" cy="-97.1" rx="22.2" ry="22.2"/>
<text text-anchor="middle" x="373.49" y="-93.4" font-family="Times,serif" font-size="14.00">a3</text>
</g>
<!-- 15&#45;&gt;16 -->
<g id="edge36" class="edge">
<title>15&#45;&gt;16</title>
<path fill="none" stroke="black" d="M291.44,-168.35C297.73,-152.75 308.27,-131.79 323.39,-118.1 328.75,-113.25 335.39,-109.41 342.05,-106.41"/>
<polygon fill="black" stroke="black" points="343.65,-109.54 351.65,-102.59 341.07,-103.03 343.65,-109.54"/>
<text text-anchor="middle" x="328.39" y="-121.9" font-family="Times,serif" font-size="14.00">b</text>
</g>
<!-- 17 -->
<g id="node18" class="node">
<title>17</title>
<ellipse fill="white" stroke="black" cx="463.69" cy="-63.1" rx="22.2" ry="22.2"/>
<text text-anchor="middle" x="463.69" y="-59.4" font-family="Times,serif" font-size="14.00">a4</text>
</g>
<!-- 16&#45;&gt;17 -->
<g id="edge19" class="edge">
<title>16&#45;&gt;17</title>
<path fill="none" stroke="black" d="M387.83,-80.07C394.65,-72.75 403.62,-64.99 413.59,-61.1 419.29,-58.87 425.65,-58.05 431.86,-58.02"/>
<polygon fill="black" stroke="black" points="431.82,-61.53 442.01,-58.61 432.23,-54.54 431.82,-61.53"/>
<text text-anchor="middle" x="418.59" y="-64.9" font-family="Times,serif" font-size="14.00">a</text>
</g>
<!-- 16&#45;&gt;17 -->
<g id="edge37" class="edge">
<title>16&#45;&gt;17</title>
<path fill="none" stroke="black" d="M394.5,-89.38C405.89,-84.99 420.37,-79.41 433.06,-74.52"/>
<polygon fill="black" stroke="black" points="434.68,-77.65 442.75,-70.78 432.16,-71.11 434.68,-77.65"/>
<text text-anchor="middle" x="418.59" y="-85.9" font-family="Times,serif" font-size="14.00">b</text>
</g>
<!-- 18 -->
<g id="node19" class="node">
<title>18</title>
<ellipse fill="white" stroke="black" cx="557.88" cy="-26.1" rx="22.18" ry="22.18"/>
<ellipse fill="none" stroke="black" cx="557.88" cy="-26.1" rx="26.2" ry="26.2"/>
<text text-anchor="middle" x="557.88" y="-22.4" font-family="Times,serif" font-size="14.00">a5</text>
</g>
<!-- 17&#45;&gt;18 -->
<g id="edge20" class="edge">
<title>17&#45;&gt;18</title>
<path fill="none" stroke="black" d="M477.94,-45.6C484.74,-38.08 493.71,-30.11 503.78,-26.1 509.38,-23.87 515.58,-22.78 521.71,-22.39"/>
<polygon fill="black" stroke="black" points="521.86,-25.89 531.84,-22.32 521.82,-18.89 521.86,-25.89"/>
<text text-anchor="middle" x="508.78" y="-29.9" font-family="Times,serif" font-size="14.00">a</text>
</g>
<!-- 17&#45;&gt;18 -->
<g id="edge38" class="edge">
<title>17&#45;&gt;18</title>
<path fill="none" stroke="black" d="M484.69,-55.07C496.09,-50.5 510.65,-44.65 523.71,-39.41"/>
<polygon fill="black" stroke="black" points="525.35,-42.52 533.33,-35.55 522.74,-36.03 525.35,-42.52"/>
<text text-anchor="middle" x="508.78" y="-50.9" font-family="Times,serif" font-size="14.00">b</text>
</g>
<!-- 18&#45;&gt;18 -->
<g id="edge21" class="edge">
<title>18&#45;&gt;18</title>
<path fill="none" stroke="black" d="M553.4,-51.92C553.2,-61.9 554.69,-70.2 557.88,-70.2 559.87,-70.2 561.21,-66.96 561.87,-62.09"/>
<polygon fill="black" stroke="black" points="565.38,-62.07 562.36,-51.92 558.39,-61.74 565.38,-62.07"/>
<text text-anchor="middle" x="557.88" y="-74" font-family="Times,serif" font-size="14.00">a</text>
</g>
<!-- 18&#45;&gt;18 -->
<g id="edge39" class="edge">
<title>18&#45;&gt;18</title>
<path fill="none" stroke="black" d="M549.95,-50.97C547.17,-69.51 549.82,-88.2 557.88,-88.2 564.43,-88.2 567.41,-75.86 566.81,-61.29"/>
<polygon fill="black" stroke="black" points="570.26,-60.59 565.82,-50.97 563.29,-61.25 570.26,-60.59"/>
<text text-anchor="middle" x="557.88" y="-92" font-family="Times,serif" font-size="14.00">b</text>
</g>
<!-- start -->
<!-- start&#45;&gt;0 -->
<g id="edge1" class="edge">
<title>start&#45;&gt;0</title>
<path fill="none" stroke="black" d="M1.07,-234.1C2.82,-234.1 36.23,-234.1 63.74,-234.1"/>
<polygon fill="black" stroke="black" points="63.92,-237.6 73.92,-234.1 63.92,-230.6 63.92,-237.6"/>
<text text-anchor="middle" x="37.5" y="-237.9" font-family="Times,serif" font-size="14.00">Start</text>
</g>
</g>
</svg>
