<?xml version="1.0" encoding="UTF-8" standalone="no"?>
<!DOCTYPE svg PUBLIC "-//W3C//DTD SVG 1.1//EN"
 "http://www.w3.org/Graphics/SVG/1.1/DTD/svg11.dtd">
<!-- Generated by graphviz version 2.43.0 (0)
 -->
<!-- Title: DFA Pages: 1 -->
<svg width="1029pt" height="379pt"
 viewBox="0.00 0.00 1028.98 379.00" xmlns="http://www.w3.org/2000/svg" xmlns:xlink="http://www.w3.org/1999/xlink">
<g id="graph0" class="graph" transform="scale(1 1) rotate(0) translate(4 375)">
<title>DFA</title>
<polygon fill="white" stroke="transparent" points="-4,4 -4,-375 1024.98,-375 1024.98,4 -4,4"/>
<!-- 1 -->
<g id="node1" class="node">
<title>1</title>
<ellipse fill="white" stroke="black" cx="92" cy="-152" rx="18" ry="18"/>
<text text-anchor="middle" x="92" y="-148.3" font-family="Times,serif" font-size="14.00">1</text>
</g>
<!-- 1&#45;&gt;1 -->
<g id="edge15" class="edge">
<title>1&#45;&gt;1</title>
<path fill="none" stroke="black" d="M84.97,-168.66C83.41,-178.62 85.75,-188 92,-188 96,-188 98.4,-184.15 99.2,-178.77"/>
<polygon fill="black" stroke="black" points="102.7,-178.6 99.03,-168.66 95.7,-178.72 102.7,-178.6"/>
<text text-anchor="middle" x="92" y="-191.8" font-family="Times,serif" font-size="14.00">b</text>
</g>
<!-- 2 -->
<g id="node2" class="node">
<title>2</title>
<ellipse fill="white" stroke="black" cx="173" cy="-152" rx="18" ry="18"/>
<text text-anchor="middle" x="173" y="-148.3" font-family="Times,serif" font-size="14.00">2</text>
</g>
<!-- 1&#45;&gt;2 -->
<g id="edge2" class="edge">
<title>1&#45;&gt;2</title>
<path fill="none" stroke="black" d="M110.14,-152C120.29,-152 133.37,-152 144.88,-152"/>
<polygon fill="black" stroke="black" points="144.89,-155.5 154.89,-152 144.89,-148.5 144.89,-155.5"/>
<text text-anchor="middle" x="132.5" y="-155.8" font-family="Times,serif" font-size="14.00">a</text>
</g>
<!-- 2&#45;&gt;2 -->
<g id="edge3" class="edge">
<title>2&#45;&gt;2</title>
<path fill="none" stroke="black" d="M165.97,-168.66C164.41,-178.62 166.75,-188 173,-188 177,-188 179.4,-184.15 180.2,-178.77"/>
<polygon fill="black" stroke="black" points="183.7,-178.6 180.03,-168.66 176.7,-178.72 183.7,-178.6"/>
<text text-anchor="middle" x="173" y="-191.8" font-family="Times,serif" font-size="14.00">a</text>
</g>
<!-- 3 -->
<g id="node3" class="node">
<title>3</title>
<ellipse fill="white" stroke="black" cx="255" cy="-152" rx="18" ry="18"/>
<text text-anchor="middle" x="255" y="-148.3" font-family="Times,serif" font-size="14.00">3</text>
</g>
<!-- 2&#45;&gt;3 -->
<g id="edge16" class="edge">
<title>2&#45;&gt;3</title>
<path fill="none" stroke="black" d="M191.36,-152C201.7,-152 215.06,-152 226.78,-152"/>
<polygon fill="black" stroke="black" points="226.95,-155.5 236.95,-152 226.95,-148.5 226.95,-155.5"/>
<text text-anchor="middle" x="214" y="-155.8" font-family="Times,serif" font-size="14.00">b</text>
</g>
<!-- 4 -->
<g id="node4" class="node">
<title>4</title>
<ellipse fill="white" stroke="black" cx="336" cy="-152" rx="18" ry="18"/>
<text text-anchor="middle" x="336" y="-148.3" font-family="Times,serif" font-size="14.00">4</text>
</g>
<!-- 3&#45;&gt;4 -->
<g id="edge4" class="edge">
<title>3&#45;&gt;4</title>
<path fill="none" stroke="black" d="M273.14,-152C283.29,-152 296.37,-152 307.88,-152"/>
<polygon fill="black" stroke="black" points="307.89,-155.5 317.89,-152 307.89,-148.5 307.89,-155.5"/>
<text text-anchor="middle" x="295.5" y="-155.8" font-family="Times,serif" font-size="14.00">a</text>
</g>
<!-- 5 -->
<g id="node5" class="node">
<title>5</title>
<ellipse fill="white" stroke="black" cx="516.75" cy="-55" rx="18" ry="18"/>
<text text-anchor="middle" x="516.75" y="-51.3" font-family="Times,serif" font-size="14.00">5</text>
</g>
<!-- 3&#45;&gt;5 -->
<g id="edge17" class="edge">
<title>3&#45;&gt;5</title>
<path fill="none" stroke="black" d="M269.71,-141.01C290.52,-124.94 331.91,-95.27 372,-80 410.79,-65.23 458.83,-59.12 488.37,-56.64"/>
<polygon fill="black" stroke="black" points="488.66,-60.13 498.37,-55.88 488.13,-53.15 488.66,-60.13"/>
<text text-anchor="middle" x="377" y="-83.8" font-family="Times,serif" font-size="14.00">b</text>
</g>
<!-- 6 -->
<g id="node6" class="node">
<title>6</title>
<ellipse fill="white" stroke="black" cx="610.5" cy="-163" rx="18" ry="18"/>
<ellipse fill="none" stroke="black" cx="610.5" cy="-163" rx="22" ry="22"/>
<text text-anchor="middle" x="610.5" y="-159.3" font-family="Times,serif" font-size="14.00">6</text>
</g>
<!-- 4&#45;&gt;6 -->
<g id="edge5" class="edge">
<title>4&#45;&gt;6</title>
<path fill="none" stroke="black" d="M354.05,-152.69C398.82,-154.5 520.26,-159.4 578.08,-161.73"/>
<polygon fill="black" stroke="black" points="578.29,-165.24 588.43,-162.15 578.58,-158.25 578.29,-165.24"/>
<text text-anchor="middle" x="467" y="-161.8" font-family="Times,serif" font-size="14.00">a</text>
</g>
<!-- 7 -->
<g id="node7" class="node">
<title>7</title>
<ellipse fill="white" stroke="black" cx="422" cy="-216" rx="18" ry="18"/>
<ellipse fill="none" stroke="black" cx="422" cy="-216" rx="22" ry="22"/>
<text text-anchor="middle" x="422" y="-212.3" font-family="Times,serif" font-size="14.00">7</text>
</g>
<!-- 4&#45;&gt;7 -->
<g id="edge18" class="edge">
<title>4&#45;&gt;7</title>
<path fill="none" stroke="black" d="M350.87,-162.57C363.02,-171.83 380.99,-185.52 395.7,-196.72"/>
<polygon fill="black" stroke="black" points="393.84,-199.7 403.91,-202.98 398.08,-194.14 393.84,-199.7"/>
<text text-anchor="middle" x="377" y="-189.8" font-family="Times,serif" font-size="14.00">b</text>
</g>
<!-- 5&#45;&gt;6 -->
<g id="edge6" class="edge">
<title>5&#45;&gt;6</title>
<path fill="none" stroke="black" d="M529,-68.24C543.85,-85.72 570.27,-116.83 588.78,-138.62"/>
<polygon fill="black" stroke="black" points="586.31,-141.11 595.45,-146.46 591.64,-136.58 586.31,-141.11"/>
<text text-anchor="middle" x="566" y="-119.8" font-family="Times,serif" font-size="14.00">a</text>
</g>
<!-- 8 -->
<g id="node8" class="node">
<title>8</title>
<ellipse fill="white" stroke="black" cx="899.49" cy="-109" rx="18" ry="18"/>
<ellipse fill="none" stroke="black" cx="899.49" cy="-109" rx="22" ry="22"/>
<text text-anchor="middle" x="899.49" y="-105.3" font-family="Times,serif" font-size="14.00">8</text>
</g>
<!-- 5&#45;&gt;8 -->
<g id="edge19" class="edge">
<title>5&#45;&gt;8</title>
<path fill="none" stroke="black" d="M534.61,-52.35C552.98,-49.69 583.25,-46 609.5,-46 609.5,-46 609.5,-46 805.74,-46 834.52,-46 861,-67.02 878.23,-84.78"/>
<polygon fill="black" stroke="black" points="875.67,-87.16 885.03,-92.12 880.8,-82.4 875.67,-87.16"/>
<text text-anchor="middle" x="705.24" y="-49.8" font-family="Times,serif" font-size="14.00">b</text>
</g>
<!-- 9 -->
<g id="node9" class="node">
<title>9</title>
<ellipse fill="white" stroke="black" cx="994.24" cy="-239" rx="18" ry="18"/>
<ellipse fill="none" stroke="black" cx="994.24" cy="-239" rx="22" ry="22"/>
<text text-anchor="middle" x="994.24" y="-235.3" font-family="Times,serif" font-size="14.00">9</text>
</g>
<!-- 6&#45;&gt;9 -->
<g id="edge7" class="edge">
<title>6&#45;&gt;9</title>
<path fill="none" stroke="black" d="M625.36,-179.67C642.04,-197.73 671.87,-224 704.24,-224 704.24,-224 704.24,-224 900.49,-224 921.49,-224 944.82,-227.79 962.83,-231.56"/>
<polygon fill="black" stroke="black" points="962.24,-235.02 972.76,-233.75 963.75,-228.18 962.24,-235.02"/>
<text text-anchor="middle" x="804.74" y="-227.8" font-family="Times,serif" font-size="14.00">a</text>
</g>
<!-- 10 -->
<g id="node10" class="node">
<title>10</title>
<ellipse fill="white" stroke="black" cx="705.24" cy="-169" rx="22.96" ry="22.96"/>
<ellipse fill="none" stroke="black" cx="705.24" cy="-169" rx="27" ry="27"/>
<text text-anchor="middle" x="705.24" y="-165.3" font-family="Times,serif" font-size="14.00">10</text>
</g>
<!-- 6&#45;&gt;10 -->
<g id="edge20" class="edge">
<title>6&#45;&gt;10</title>
<path fill="none" stroke="black" d="M632.54,-164.36C643.04,-165.04 656.04,-165.88 668.07,-166.66"/>
<polygon fill="black" stroke="black" points="668.11,-170.17 678.31,-167.32 668.56,-163.18 668.11,-170.17"/>
<text text-anchor="middle" x="655.5" y="-169.8" font-family="Times,serif" font-size="14.00">b</text>
</g>
<!-- 11 -->
<g id="node11" class="node">
<title>11</title>
<ellipse fill="white" stroke="black" cx="516.75" cy="-207" rx="22.96" ry="22.96"/>
<ellipse fill="none" stroke="black" cx="516.75" cy="-207" rx="27" ry="27"/>
<text text-anchor="middle" x="516.75" y="-203.3" font-family="Times,serif" font-size="14.00">11</text>
</g>
<!-- 7&#45;&gt;11 -->
<g id="edge8" class="edge">
<title>7&#45;&gt;11</title>
<path fill="none" stroke="black" d="M444.05,-213.96C454.55,-212.94 467.54,-211.68 479.58,-210.51"/>
<polygon fill="black" stroke="black" points="480.2,-213.97 489.82,-209.52 479.53,-207 480.2,-213.97"/>
<text text-anchor="middle" x="467" y="-216.8" font-family="Times,serif" font-size="14.00">a</text>
</g>
<!-- 12 -->
<g id="node12" class="node">
<title>12</title>
<ellipse fill="white" stroke="black" cx="804.74" cy="-144" rx="22.96" ry="22.96"/>
<ellipse fill="none" stroke="black" cx="804.74" cy="-144" rx="27" ry="27"/>
<text text-anchor="middle" x="804.74" y="-140.3" font-family="Times,serif" font-size="14.00">12</text>
</g>
<!-- 7&#45;&gt;12 -->
<g id="edge21" class="edge">
<title>7&#45;&gt;12</title>
<path fill="none" stroke="black" d="M439.23,-229.8C456.86,-243.35 486.45,-262 515.75,-262 515.75,-262 515.75,-262 706.24,-262 728.63,-262 763.77,-210.91 785.18,-175.97"/>
<polygon fill="black" stroke="black" points="788.4,-177.4 790.58,-167.03 782.41,-173.78 788.4,-177.4"/>
<text text-anchor="middle" x="610.5" y="-265.8" font-family="Times,serif" font-size="14.00">b</text>
</g>
<!-- 8&#45;&gt;9 -->
<g id="edge9" class="edge">
<title>8&#45;&gt;9</title>
<path fill="none" stroke="black" d="M913,-126.53C928.9,-148.82 956.49,-187.49 974.8,-213.16"/>
<polygon fill="black" stroke="black" points="971.97,-215.22 980.63,-221.33 977.67,-211.16 971.97,-215.22"/>
<text text-anchor="middle" x="944.49" y="-177.8" font-family="Times,serif" font-size="14.00">a</text>
</g>
<!-- 13 -->
<g id="node13" class="node">
<title>13</title>
<ellipse fill="white" stroke="black" cx="994.24" cy="-77" rx="22.96" ry="22.96"/>
<ellipse fill="none" stroke="black" cx="994.24" cy="-77" rx="27" ry="27"/>
<text text-anchor="middle" x="994.24" y="-73.3" font-family="Times,serif" font-size="14.00">13</text>
</g>
<!-- 8&#45;&gt;13 -->
<g id="edge22" class="edge">
<title>8&#45;&gt;13</title>
<path fill="none" stroke="black" d="M920.61,-102.06C931.82,-98.19 946.08,-93.27 958.99,-88.82"/>
<polygon fill="black" stroke="black" points="960.21,-92.1 968.53,-85.53 957.93,-85.48 960.21,-92.1"/>
<text text-anchor="middle" x="944.49" y="-98.8" font-family="Times,serif" font-size="14.00">b</text>
</g>
<!-- 9&#45;&gt;2 -->
<g id="edge10" class="edge">
<title>9&#45;&gt;2</title>
<path fill="none" stroke="black" d="M987.22,-259.92C976.11,-293.57 948.96,-356 900.49,-356 254,-356 254,-356 254,-356 216.56,-356 189.4,-235.42 178.85,-179.67"/>
<polygon fill="black" stroke="black" points="182.27,-178.94 177.02,-169.75 175.39,-180.22 182.27,-178.94"/>
<text text-anchor="middle" x="566" y="-359.8" font-family="Times,serif" font-size="14.00">a</text>
</g>
<!-- 9&#45;&gt;3 -->
<g id="edge23" class="edge">
<title>9&#45;&gt;3</title>
<path fill="none" stroke="black" d="M981.55,-257.29C965.95,-279.21 936.12,-313 900.49,-313 335,-313 335,-313 335,-313 276.51,-313 261.32,-226.3 257.38,-180.14"/>
<polygon fill="black" stroke="black" points="260.87,-179.87 256.65,-170.16 253.89,-180.38 260.87,-179.87"/>
<text text-anchor="middle" x="610.5" y="-316.8" font-family="Times,serif" font-size="14.00">b</text>
</g>
<!-- 10&#45;&gt;4 -->
<g id="edge11" class="edge">
<title>10&#45;&gt;4</title>
<path fill="none" stroke="black" d="M686.87,-149.02C669.67,-131.57 641.6,-109 611.5,-109 421,-109 421,-109 421,-109 397.64,-109 374.24,-122.34 358.09,-134.16"/>
<polygon fill="black" stroke="black" points="355.69,-131.59 349.92,-140.48 359.97,-137.13 355.69,-131.59"/>
<text text-anchor="middle" x="516.75" y="-112.8" font-family="Times,serif" font-size="14.00">a</text>
</g>
<!-- 10&#45;&gt;12 -->
<g id="edge24" class="edge">
<title>10&#45;&gt;12</title>
<path fill="none" stroke="black" d="M731.35,-162.56C742.72,-159.65 756.36,-156.15 768.72,-152.98"/>
<polygon fill="black" stroke="black" points="769.9,-156.29 778.72,-150.42 768.16,-149.51 769.9,-156.29"/>
<text text-anchor="middle" x="754.99" y="-161.8" font-family="Times,serif" font-size="14.00">b</text>
</g>
<!-- 11&#45;&gt;6 -->
<g id="edge12" class="edge">
<title>11&#45;&gt;6</title>
<path fill="none" stroke="black" d="M541.38,-195.67C553.48,-189.87 568.3,-182.76 581.03,-176.65"/>
<polygon fill="black" stroke="black" points="582.77,-179.7 590.27,-172.22 579.74,-173.39 582.77,-179.7"/>
<text text-anchor="middle" x="566" y="-188.8" font-family="Times,serif" font-size="14.00">a</text>
</g>
<!-- 11&#45;&gt;7 -->
<g id="edge25" class="edge">
<title>11&#45;&gt;7</title>
<path fill="none" stroke="black" d="M492.44,-195.53C482.98,-192.28 471.95,-190.28 462,-193 457.62,-194.2 453.22,-196.03 449.05,-198.14"/>
<polygon fill="black" stroke="black" points="447.31,-195.1 440.35,-203.09 450.77,-201.19 447.31,-195.1"/>
<text text-anchor="middle" x="467" y="-196.8" font-family="Times,serif" font-size="14.00">b</text>
</g>
<!-- 12&#45;&gt;6 -->
<g id="edge13" class="edge">
<title>12&#45;&gt;6</title>
<path fill="none" stroke="black" d="M780.34,-132.23C754.94,-121.04 713.34,-107.39 678.5,-118 662.6,-122.84 647.04,-132.86 634.93,-142.22"/>
<polygon fill="black" stroke="black" points="632.72,-139.51 627.14,-148.52 637.11,-144.95 632.72,-139.51"/>
<text text-anchor="middle" x="705.24" y="-121.8" font-family="Times,serif" font-size="14.00">a</text>
</g>
<!-- 12&#45;&gt;8 -->
<g id="edge26" class="edge">
<title>12&#45;&gt;8</title>
<path fill="none" stroke="black" d="M830.11,-134.8C842.05,-130.3 856.53,-124.83 869.08,-120.1"/>
<polygon fill="black" stroke="black" points="870.53,-123.29 878.65,-116.49 868.06,-116.74 870.53,-123.29"/>
<text text-anchor="middle" x="854.49" y="-130.8" font-family="Times,serif" font-size="14.00">b</text>
</g>
<!-- 13&#45;&gt;2 -->
<g id="edge14" class="edge">
<title>13&#45;&gt;2</title>
<path fill="none" stroke="black" d="M979.21,-54.31C963.22,-31.6 934.81,0 900.49,0 254,0 254,0 254,0 198.63,0 181.49,-79.97 176.26,-123.9"/>
<polygon fill="black" stroke="black" points="172.76,-123.65 175.19,-133.97 179.73,-124.39 172.76,-123.65"/>
<text text-anchor="middle" x="566" y="-3.8" font-family="Times,serif" font-size="14.00">a</text>
</g>
<!-- 13&#45;&gt;13 -->
<g id="edge27" class="edge">
<title>13&#45;&gt;13</title>
<path fill="none" stroke="black" d="M985.31,-102.3C984.7,-112.83 987.67,-121.75 994.24,-121.75 998.54,-121.75 1001.3,-117.91 1002.52,-112.29"/>
<polygon fill="black" stroke="black" points="1006.01,-112.5 1003.16,-102.3 999.03,-112.06 1006.01,-112.5"/>
<text text-anchor="middle" x="994.24" y="-125.55" font-family="Times,serif" font-size="14.00">b</text>
</g>
<!-- start -->
<!-- start&#45;&gt;1 -->
<g id="edge1" class="edge">
<title>start&#45;&gt;1</title>
<path fill="none" stroke="black" d="M1.07,-152C2.78,-152 37.84,-152 63.67,-152"/>
<polygon fill="black" stroke="black" points="63.71,-155.5 73.71,-152 63.71,-148.5 63.71,-155.5"/>
<text text-anchor="middle" x="37.5" y="-155.8" font-family="Times,serif" font-size="14.00">Start</text>
</g>
</g>
</svg>
