<?xml version="1.0" encoding="UTF-8" standalone="no"?>
<!DOCTYPE svg PUBLIC "-//W3C//DTD SVG 1.1//EN"
 "http://www.w3.org/Graphics/SVG/1.1/DTD/svg11.dtd">
<!-- Generated by graphviz version 2.43.0 (0)
 -->
<!-- Title: NFA Pages: 1 -->
<svg width="596pt" height="162pt"
 viewBox="0.00 0.00 596.00 162.00" xmlns="http://www.w3.org/2000/svg" xmlns:xlink="http://www.w3.org/1999/xlink">
<g id="graph0" class="graph" transform="scale(1 1) rotate(0) translate(4 158)">
<title>NFA</title>
<polygon fill="white" stroke="transparent" points="-4,4 -4,-158 592,-158 592,4 -4,4"/>
<!-- 5 -->
<g id="node1" class="node">
<title>5</title>
<ellipse fill="white" stroke="black" cx="476" cy="-70" rx="18" ry="18"/>
<ellipse fill="none" stroke="black" cx="476" cy="-70" rx="22" ry="22"/>
<text text-anchor="middle" x="476" y="-66.3" font-family="Times,serif" font-size="14.00">5</text>
</g>
<!-- 6 -->
<g id="node2" class="node">
<title>6</title>
<ellipse fill="white" stroke="black" cx="566" cy="-117" rx="18" ry="18"/>
<ellipse fill="none" stroke="black" cx="566" cy="-117" rx="22" ry="22"/>
<text text-anchor="middle" x="566" y="-113.3" font-family="Times,serif" font-size="14.00">6</text>
</g>
<!-- 5&#45;&gt;6 -->
<g id="edge10" class="edge">
<title>5&#45;&gt;6</title>
<path fill="none" stroke="black" d="M495.66,-79.97C507.8,-86.45 523.83,-95.01 537.42,-102.27"/>
<polygon fill="black" stroke="black" points="535.89,-105.42 546.36,-107.05 539.19,-99.25 535.89,-105.42"/>
<text text-anchor="middle" x="521" y="-97.8" font-family="Times,serif" font-size="14.00">a</text>
</g>
<!-- 7 -->
<g id="node3" class="node">
<title>7</title>
<ellipse fill="white" stroke="black" cx="566" cy="-22" rx="18" ry="18"/>
<ellipse fill="none" stroke="black" cx="566" cy="-22" rx="22" ry="22"/>
<text text-anchor="middle" x="566" y="-18.3" font-family="Times,serif" font-size="14.00">7</text>
</g>
<!-- 5&#45;&gt;7 -->
<g id="edge11" class="edge">
<title>5&#45;&gt;7</title>
<path fill="none" stroke="black" d="M495.66,-59.82C507.8,-53.2 523.83,-44.46 537.42,-37.04"/>
<polygon fill="black" stroke="black" points="539.26,-40.03 546.36,-32.16 535.91,-33.88 539.26,-40.03"/>
<text text-anchor="middle" x="521" y="-51.8" font-family="Times,serif" font-size="14.00">b</text>
</g>
<!-- 7&#45;&gt;7 -->
<g id="edge12" class="edge">
<title>7&#45;&gt;7</title>
<path fill="none" stroke="black" d="M557.99,-42.58C556.89,-52.84 559.55,-62 566,-62 570.13,-62 572.71,-58.24 573.74,-52.84"/>
<polygon fill="black" stroke="black" points="577.24,-52.67 574.01,-42.58 570.25,-52.49 577.24,-52.67"/>
<text text-anchor="middle" x="566" y="-65.8" font-family="Times,serif" font-size="14.00">b</text>
</g>
<!-- 1 -->
<g id="node4" class="node">
<title>1</title>
<ellipse fill="white" stroke="black" cx="145" cy="-70" rx="18" ry="18"/>
<text text-anchor="middle" x="145" y="-66.3" font-family="Times,serif" font-size="14.00">1</text>
</g>
<!-- 1&#45;&gt;1 -->
<g id="edge2" class="edge">
<title>1&#45;&gt;1</title>
<path fill="none" stroke="black" d="M141.4,-87.78C140.79,-97.31 141.99,-106 145,-106 146.83,-106 147.99,-102.77 148.48,-98.1"/>
<polygon fill="black" stroke="black" points="151.99,-97.82 148.6,-87.78 144.99,-97.74 151.99,-97.82"/>
<text text-anchor="middle" x="145" y="-109.8" font-family="Times,serif" font-size="14.00">a</text>
</g>
<!-- 1&#45;&gt;1 -->
<g id="edge3" class="edge">
<title>1&#45;&gt;1</title>
<path fill="none" stroke="black" d="M139.15,-87.14C135.71,-104.58 137.66,-124 145,-124 150.91,-124 153.33,-111.43 152.25,-97.43"/>
<polygon fill="black" stroke="black" points="155.67,-96.58 150.85,-87.14 148.73,-97.52 155.67,-96.58"/>
<text text-anchor="middle" x="145" y="-127.8" font-family="Times,serif" font-size="14.00">b</text>
</g>
<!-- 2 -->
<g id="node6" class="node">
<title>2</title>
<ellipse fill="white" stroke="black" cx="226" cy="-70" rx="18" ry="18"/>
<text text-anchor="middle" x="226" y="-66.3" font-family="Times,serif" font-size="14.00">2</text>
</g>
<!-- 1&#45;&gt;2 -->
<g id="edge4" class="edge">
<title>1&#45;&gt;2</title>
<path fill="none" stroke="black" d="M163.14,-70C173.29,-70 186.37,-70 197.88,-70"/>
<polygon fill="black" stroke="black" points="197.89,-73.5 207.89,-70 197.89,-66.5 197.89,-73.5"/>
<text text-anchor="middle" x="185.5" y="-73.8" font-family="Times,serif" font-size="14.00">a</text>
</g>
<!-- start -->
<g id="node5" class="node">
<title>start</title>
<polygon fill="white" stroke="transparent" points="54,-88 0,-88 0,-52 54,-52 54,-88"/>
</g>
<!-- start&#45;&gt;1 -->
<g id="edge1" class="edge">
<title>start&#45;&gt;1</title>
<path fill="none" stroke="black" d="M54.03,-70C72.66,-70 97.68,-70 116.61,-70"/>
<polygon fill="black" stroke="black" points="116.68,-73.5 126.68,-70 116.68,-66.5 116.68,-73.5"/>
<text text-anchor="middle" x="90.5" y="-73.8" font-family="Times,serif" font-size="14.00">Start</text>
</g>
<!-- 3 -->
<g id="node7" class="node">
<title>3</title>
<ellipse fill="white" stroke="black" cx="308" cy="-70" rx="18" ry="18"/>
<text text-anchor="middle" x="308" y="-66.3" font-family="Times,serif" font-size="14.00">3</text>
</g>
<!-- 2&#45;&gt;3 -->
<g id="edge5" class="edge">
<title>2&#45;&gt;3</title>
<path fill="none" stroke="black" d="M244.36,-70C254.7,-70 268.06,-70 279.78,-70"/>
<polygon fill="black" stroke="black" points="279.95,-73.5 289.95,-70 279.95,-66.5 279.95,-73.5"/>
<text text-anchor="middle" x="267" y="-73.8" font-family="Times,serif" font-size="14.00">b</text>
</g>
<!-- 4 -->
<g id="node8" class="node">
<title>4</title>
<ellipse fill="white" stroke="black" cx="390" cy="-70" rx="18" ry="18"/>
<text text-anchor="middle" x="390" y="-66.3" font-family="Times,serif" font-size="14.00">4</text>
</g>
<!-- 3&#45;&gt;4 -->
<g id="edge6" class="edge">
<title>3&#45;&gt;4</title>
<path fill="none" stroke="black" d="M326.36,-70C336.7,-70 350.06,-70 361.78,-70"/>
<polygon fill="black" stroke="black" points="361.95,-73.5 371.95,-70 361.95,-66.5 361.95,-73.5"/>
<text text-anchor="middle" x="349" y="-73.8" font-family="Times,serif" font-size="14.00">a</text>
</g>
<!-- 3&#45;&gt;4 -->
<g id="edge7" class="edge">
<title>3&#45;&gt;4</title>
<path fill="none" stroke="black" d="M323.31,-60.13C329.4,-56.51 336.76,-52.84 344,-51 351.46,-49.11 359.28,-50.94 366.28,-54.1"/>
<polygon fill="black" stroke="black" points="364.74,-57.25 375.19,-59.01 368.12,-51.12 364.74,-57.25"/>
<text text-anchor="middle" x="349" y="-54.8" font-family="Times,serif" font-size="14.00">b</text>
</g>
<!-- 4&#45;&gt;5 -->
<g id="edge8" class="edge">
<title>4&#45;&gt;5</title>
<path fill="none" stroke="black" d="M408.4,-70C418.59,-70 431.75,-70 443.68,-70"/>
<polygon fill="black" stroke="black" points="443.74,-73.5 453.74,-70 443.74,-66.5 443.74,-73.5"/>
<text text-anchor="middle" x="431" y="-73.8" font-family="Times,serif" font-size="14.00">a</text>
</g>
<!-- 4&#45;&gt;5 -->
<g id="edge9" class="edge">
<title>4&#45;&gt;5</title>
<path fill="none" stroke="black" d="M405.31,-60.13C411.4,-56.51 418.76,-52.84 426,-51 433.42,-49.12 441.23,-50.51 448.39,-53.23"/>
<polygon fill="black" stroke="black" points="447.11,-56.49 457.65,-57.58 450.09,-50.16 447.11,-56.49"/>
<text text-anchor="middle" x="431" y="-54.8" font-family="Times,serif" font-size="14.00">b</text>
</g>
</g>
</svg>
